<svg width="138" height="125" viewBox="0 0 138 125" fill="none" xmlns="http://www.w3.org/2000/svg">
<path fill-rule="evenodd" clip-rule="evenodd" d="M69.9209 2.48034C88.4818 3.27629 107.616 5.80973 120.04 19.558C133.318 34.2528 138.866 54.7297 134.572 74.0258C130.245 93.4666 116.274 109.249 98.1851 117.754C80.2679 126.18 59.6595 125.999 41.6802 117.706C23.3458 109.249 9.22791 93.7424 4.00544 74.313C-1.4711 53.9384 -0.213229 30.5874 14.0773 15.014C27.6162 0.259755 49.8635 1.62021 69.9209 2.48034Z" fill="#FCF5DE"/>
<path d="M87.2755 61.6229L64.9656 87.0366C63.3642 88.8319 60.3822 87.3171 60.9344 84.9609L64.7447 69.0282C65.1313 67.5135 63.9716 66.111 62.4806 66.111H51.4361C49.5585 66.111 48.4541 63.923 49.5585 62.2961L71.8684 31.8333C73.3594 29.8137 76.4519 31.2723 75.9549 33.7407L71.8684 54.8908C71.5923 56.2933 72.6968 57.7519 74.1326 57.7519H85.4532C87.4412 57.6397 88.6008 60.1082 87.2755 61.6229Z" fill="#FFDC79"/>
<path d="M35.3661 64.372H43.0973C44.0361 64.372 44.754 63.6427 44.754 62.689C44.754 61.7353 44.0361 61.006 43.0973 61.006H35.3661C34.4274 61.006 33.7095 61.7353 33.7095 62.689C33.7095 63.5866 34.4274 64.372 35.3661 64.372Z" fill="#193765"/>
<path d="M38.9007 79.295C39.3977 80.0804 40.3917 80.3609 41.1648 79.856L46.8527 76.3777C47.3497 76.0411 47.6811 75.4801 47.6811 74.9191C47.6811 74.6385 47.6259 74.3019 47.4602 74.0775C46.9632 73.2921 45.9692 73.0116 45.1961 73.5165L39.5082 76.9948C38.6798 77.4436 38.4589 78.5095 38.9007 79.295Z" fill="#193765"/>
<path d="M47.4054 51.2443C47.571 50.9638 47.6263 50.6833 47.6263 50.4028C47.6263 49.8417 47.3502 49.2807 46.7979 48.9441L41.11 45.4659C40.3369 44.9609 39.2877 45.2414 38.8459 46.0269C38.3489 46.8123 38.625 47.8782 39.3981 48.327L45.086 51.8053C45.9144 52.3102 46.9636 52.0858 47.4054 51.2443Z" fill="#193765"/>
<path d="M101.633 64.3716H93.9023C92.9635 64.3716 92.2456 63.6423 92.2456 62.6886C92.2456 61.7349 92.9635 61.0056 93.9023 61.0056H101.633C102.572 61.0056 103.29 61.7349 103.29 62.6886C103.29 63.6423 102.572 64.3716 101.633 64.3716Z" fill="#193765"/>
<path d="M98.0987 79.2947C97.6017 80.0801 96.6077 80.3606 95.8346 79.8557L90.1467 76.3775C89.6497 76.0409 89.3184 75.4799 89.3184 74.9189C89.3184 74.6384 89.3736 74.3018 89.5393 74.0774C90.0363 73.292 91.0303 73.0115 91.8034 73.5164L97.4913 76.9946C98.3196 77.4434 98.5405 78.5093 98.0987 79.2947Z" fill="#193765"/>
<path d="M89.5954 51.2443C89.4297 50.9637 89.3745 50.6832 89.3745 50.4027C89.3745 49.8417 89.6506 49.2807 90.2029 48.9441L95.8908 45.4658C96.6639 44.9609 97.7131 45.2414 98.1549 46.0268C98.6519 46.8123 98.3758 47.8782 97.6027 48.327L91.9148 51.8053C91.0864 52.3102 90.0372 52.0858 89.5954 51.2443Z" fill="#193765"/>
</svg>
