<svg width="137" height="139" viewBox="0 0 137 139" fill="none" xmlns="http://www.w3.org/2000/svg">
<g clip-path="url(#clip0)">
<path fill-rule="evenodd" clip-rule="evenodd" d="M76.177 129.641C57.7599 132.081 38.4762 132.908 23.8541 121.526C8.22545 109.361 -0.794089 90.1581 0.0844842 70.4095C0.969653 50.5126 11.9881 32.5444 28.3251 21.0266C44.5071 9.61811 64.8337 6.21707 83.9799 11.2622C103.504 16.4069 120.1 29.2266 128.617 47.4539C137.549 66.568 140.365 89.7827 128.996 107.601C118.225 124.482 96.0791 127.006 76.177 129.641Z" fill="#FFF6F7"/>
<g clip-path="url(#clip1)">
<path d="M97.6718 60.4636L67.0671 39.0403L36.4624 60.4636V100.25H46.664V69.1349H87.4702V100.25H97.6718V60.4636Z" fill="white"/>
<path d="M71.6578 60.9737H61.9663C61.0991 60.9737 60.436 60.3106 60.436 59.4434C60.436 58.5763 61.0991 57.9132 61.9663 57.9132H71.6578C72.5249 57.9132 73.188 58.5763 73.188 59.4434C73.188 60.3106 72.5249 60.9737 71.6578 60.9737Z" fill="#193765"/>
<path d="M98.5388 59.1884L67.9342 37.7651C67.4241 37.4081 66.71 37.4081 66.1999 37.7651L35.5952 59.1884C35.1872 59.4944 34.9321 59.9535 34.9321 60.4636V100.25C34.9321 101.117 35.5952 101.78 36.4624 101.78H46.6639H87.4702H97.6717C98.5388 101.78 99.202 101.117 99.202 100.25V60.4636C99.202 59.9535 98.9469 59.4944 98.5388 59.1884ZM96.1415 98.7194H89.0004V69.645V69.1349C89.0004 68.2678 88.3373 67.6047 87.4702 67.6047H46.6639C45.7968 67.6047 45.1337 68.2678 45.1337 69.1349V69.645V98.7194H37.9926V61.2797L67.067 40.9276L96.1415 61.2797V98.7194Z" fill="#193765"/>
<path d="M64.0066 86.4776H61.4562C61.1501 86.4776 60.9461 86.6816 60.9461 86.9876V89.028C60.9461 89.8951 57.8856 89.8951 57.8856 89.028V86.9876C57.8856 86.6816 57.6816 86.4776 57.3755 86.4776H54.8252C53.958 86.4776 53.2949 87.1407 53.2949 88.0078V97.1892C53.2949 98.0563 53.958 98.7194 54.8252 98.7194H64.0066C64.8737 98.7194 65.5368 98.0563 65.5368 97.1892V88.0078C65.5368 87.1407 64.8737 86.4776 64.0066 86.4776ZM79.3089 86.4776H76.7585C76.4525 86.4776 76.2484 86.6816 76.2484 86.9876V89.028C76.2484 89.8951 73.188 89.8951 73.188 89.028V86.9876C73.188 86.6816 72.9839 86.4776 72.6779 86.4776H70.1275C69.2604 86.4776 68.5973 87.1407 68.5973 88.0078V97.1892C68.5973 98.0563 69.2604 98.7194 70.1275 98.7194H79.3089C80.176 98.7194 80.8391 98.0563 80.8391 97.1892V88.0078C80.8391 87.1407 80.176 86.4776 79.3089 86.4776ZM71.6577 71.6853H69.1073C68.8013 71.6853 68.5973 71.8893 68.5973 72.1954V74.2357C68.5973 75.1028 65.5368 75.1028 65.5368 74.2357V72.1954C65.5368 71.8893 65.3328 71.6853 65.0267 71.6853H62.4763C61.6092 71.6853 60.9461 72.3484 60.9461 73.2155V82.3969C60.9461 83.2641 61.6092 83.9272 62.4763 83.9272H71.6577C72.5249 83.9272 73.188 83.2641 73.188 82.3969V73.2155C73.188 72.3484 72.5249 71.6853 71.6577 71.6853Z" fill="#FF8DA0"/>
</g>
</g>
<defs>
<clipPath id="clip0">
<rect width="137" height="139" fill="white"/>
</clipPath>
<clipPath id="clip1">
<rect width="65.29" height="65.29" fill="white" transform="translate(34.4219 37)"/>
</clipPath>
</defs>
</svg>
