<svg width="138" height="139" viewBox="0 0 138 139" fill="none" xmlns="http://www.w3.org/2000/svg">
<g clip-path="url(#clip0)">
<path fill-rule="evenodd" clip-rule="evenodd" d="M17.4555 43.9275C8.8644 60.3996 1.49117 78.2373 7.18582 95.8705C13.2725 114.717 28.2321 129.761 47.0902 135.69C66.0899 141.663 86.743 137.454 103.154 126.042C119.409 114.738 129.557 96.8003 131.364 77.0832C133.208 56.9767 126.837 36.9968 112.622 22.7593C97.7156 7.82918 76.864 -2.757 56.2318 1.83227C36.6848 6.18016 26.7393 26.1272 17.4555 43.9275Z" fill="#F2FBF7"/>
<path d="M73.4379 98.6709C68.852 90.518 60.1818 84.9856 50.2219 84.9856C40.2619 84.9856 31.5917 90.518 27.0059 98.7437L27.0775 100.927H73.3662L73.4379 98.6709ZM50.2219 50.627C46.8962 50.627 43.7067 51.9691 41.3551 54.3581C39.0035 56.7471 37.6824 59.9873 37.6824 63.3659C37.6824 66.7444 39.0035 69.9846 41.3551 72.3736C43.7067 74.7627 46.8962 76.1048 50.2219 76.1048C53.5475 76.1048 56.737 74.7627 59.0886 72.3736C61.4402 69.9846 62.7614 66.7444 62.7614 63.3659C62.7614 59.9873 61.4402 56.7471 59.0886 54.3581C56.737 51.9691 53.5475 50.627 50.2219 50.627Z" fill="#73CFA8"/>
<path d="M50.2217 78.2159C42.1248 78.2159 35.5326 71.5188 35.5326 63.2931C35.5326 55.5042 41.5516 48.9528 49.2186 48.4432C50.4367 48.3704 51.4399 49.2439 51.5115 50.4814C51.5832 51.7189 50.7233 52.738 49.5052 52.8108C44.0595 53.1748 39.8319 57.7608 39.8319 63.2931C39.8319 69.1166 44.4894 73.8482 50.2217 73.8482C52.0848 73.8482 53.9478 73.3387 55.5242 72.3924C56.5273 71.81 57.8888 72.1012 58.462 73.1203C59.0352 74.1394 58.7486 75.5225 57.7454 76.1048C55.4525 77.4879 52.873 78.2159 50.2217 78.2159ZM27.0057 100.855C26.6475 100.855 26.2892 100.782 25.9309 100.564C24.9278 99.9812 24.5695 98.6709 25.1427 97.579C28.8687 90.882 35.1743 85.8592 42.4831 83.821C43.6295 83.5298 44.8477 84.185 45.1343 85.3497C45.4209 86.5144 44.776 87.7519 43.6295 88.043C37.4673 89.7901 32.0932 94.0849 28.8687 99.7628C28.5105 100.491 27.7939 100.855 27.0057 100.855Z" fill="#193765"/>
<path d="M67.1318 98.6706C71.7177 90.5177 80.3879 84.9853 90.3478 84.9853C100.308 84.9853 108.978 90.5177 113.564 98.7434L113.492 100.927H67.2035L67.1318 98.6706ZM90.3478 50.6265C87.0222 50.6265 83.8327 51.9686 81.4811 54.3576C79.1295 56.7466 77.8083 59.9869 77.8083 63.3654C77.8083 66.744 79.1295 69.9842 81.4811 72.3733C83.8327 74.7623 87.0222 76.1044 90.3478 76.1044C93.6735 76.1044 96.863 74.7623 99.2146 72.3733C101.566 69.9842 102.887 66.744 102.887 63.3654C102.887 59.9869 101.566 56.7466 99.2146 54.3576C96.863 51.9686 93.6735 50.6265 90.3478 50.6265Z" fill="#73CFA8"/>
<path d="M90.348 78.2156C87.6968 78.2156 85.1173 77.4877 82.896 76.1046C81.8928 75.5223 81.5346 74.1392 82.1795 73.1201C82.7527 72.1009 84.1141 71.737 85.1173 72.3921C86.6937 73.3384 88.5567 73.848 90.4197 73.848C96.152 73.848 100.81 69.1164 100.81 63.2929C100.81 57.7606 96.5819 53.1746 91.1362 52.8106C89.9181 52.7378 89.0583 51.7187 89.1299 50.4812C89.2016 49.2437 90.2047 48.3702 91.4228 48.443C99.0898 48.9525 105.109 55.504 105.109 63.2929C105.037 71.5914 98.445 78.2156 90.348 78.2156ZM113.564 100.854C112.847 100.854 112.059 100.491 111.701 99.7626C108.548 94.0847 103.174 89.7898 96.9402 88.0428C95.7937 87.7516 95.1489 86.5141 95.4355 85.3494C95.7221 84.1847 96.9402 83.5296 98.0867 83.8207C105.324 85.859 111.629 90.8817 115.427 97.5788C116 98.5979 115.642 99.981 114.639 100.563C114.281 100.782 113.922 100.854 113.564 100.854Z" fill="#193765"/>
<path d="M96.8687 98.3797C91.5662 88.9893 81.6779 82.6563 70.2849 82.6563C58.8919 82.6563 49.0036 88.9893 43.7012 98.3797L43.7728 100.855H96.797L96.8687 98.3797ZM70.2849 43.3477C66.4841 43.3477 62.839 44.8815 60.1515 47.6118C57.4639 50.3421 55.9541 54.0452 55.9541 57.9064C55.9541 61.7676 57.4639 65.4707 60.1515 68.201C62.839 70.9313 66.4841 72.4652 70.2849 72.4652C74.0857 72.4652 77.7308 70.9313 80.4184 68.201C83.1059 65.4707 84.6158 61.7676 84.6158 57.9064C84.6158 54.0452 83.1059 50.3421 80.4184 47.6118C77.7308 44.8815 74.0857 43.3477 70.2849 43.3477Z" fill="white"/>
<path d="M70.2847 74.649C61.1847 74.649 53.8043 67.1512 53.8043 57.9064C53.8043 48.6616 61.1847 41.1638 70.2847 41.1638C79.3848 41.1638 86.7652 48.6616 86.7652 57.9064C86.7652 67.1512 79.3848 74.649 70.2847 74.649ZM70.2847 45.5314C63.5492 45.5314 58.1035 51.0638 58.1035 57.9064C58.1035 64.749 63.5492 70.2813 70.2847 70.2813C77.0202 70.2813 82.4659 64.749 82.4659 57.9064C82.4659 51.0638 77.0202 45.5314 70.2847 45.5314ZM43.701 100.855C43.3428 100.855 42.9845 100.782 42.6262 100.564C41.6231 99.9812 41.2648 98.6709 41.838 97.579C47.642 87.2423 58.5334 80.7636 70.2847 80.7636C82.036 80.7636 92.9274 87.2423 98.7314 97.579C99.3047 98.5981 98.9464 99.9812 97.9432 100.564C96.9401 101.146 95.5787 100.782 95.0054 99.7628C89.9896 90.7364 80.5313 85.1313 70.2847 85.1313C60.1098 85.1313 50.6515 90.7364 45.564 99.7628C45.2058 100.491 44.4892 100.855 43.701 100.855Z" fill="#193765"/>
</g>
<defs>
<clipPath id="clip0">
<rect width="138" height="139" fill="white"/>
</clipPath>
</defs>
</svg>
