<svg width="137" height="139" viewBox="0 0 137 139" fill="none" xmlns="http://www.w3.org/2000/svg">
<g clip-path="url(#clip0)">
<path fill-rule="evenodd" clip-rule="evenodd" d="M120.7 43.9275C129.291 60.3996 136.664 78.2373 130.969 95.8705C124.883 114.717 109.923 129.761 91.0651 135.69C72.0654 141.663 51.4123 137.454 35.0015 126.042C18.7465 114.738 8.59841 96.8003 6.79085 77.0832C4.94759 56.9767 11.318 36.9968 25.5331 22.7593C40.4397 7.82918 61.2913 -2.757 81.9234 1.83227C101.47 6.18016 111.416 26.1272 120.7 43.9275Z" fill="#E7F2FF"/>
<g clip-path="url(#clip1)">
<path d="M84.4254 45.0756H50.7305C48.0831 45.0756 45.917 47.2417 45.917 49.8891V66.2552C45.917 68.9026 48.0831 71.0687 50.7305 71.0687V98.0246C50.7305 100.672 52.8966 102.838 55.5441 102.838H79.6119C82.2593 102.838 84.4254 100.672 84.4254 98.0246V71.0687C87.0729 71.0687 89.239 68.9026 89.239 66.2552V49.8891C89.239 47.2417 87.0729 45.0756 84.4254 45.0756Z" fill="white"/>
<path d="M83.4625 66.7365H51.6931C50.8748 66.7365 50.249 66.1107 50.249 65.2924V50.8518C50.249 50.0335 50.8748 49.4077 51.6931 49.4077H83.4625C84.2808 49.4077 84.9066 50.0335 84.9066 50.8518V65.2924C84.9066 66.1107 84.2808 66.7365 83.4625 66.7365ZM53.1372 63.8484H82.0185V52.2958H53.1372V63.8484Z" fill="#193765"/>
<path d="M87.3133 43.6315H84.4251H50.7303C47.2645 43.6315 44.4727 46.4233 44.4727 49.8891V66.2552C44.4727 69.1914 46.5425 71.6945 49.2862 72.3202V98.0246C49.2862 101.49 52.0781 104.282 55.5438 104.282H56.0252H58.432H79.6116H80.0929H82.4997C85.9655 104.282 88.7573 101.49 88.7573 98.0246V72.3202C91.5011 71.6463 93.5709 69.1914 93.5709 66.2552V49.8891C93.5709 46.4233 90.779 43.6315 87.3133 43.6315ZM50.7303 69.6247C48.853 69.6247 47.3608 68.1325 47.3608 66.2552V49.8891C47.3608 48.0118 48.853 46.5196 50.7303 46.5196H84.4251C86.3024 46.5196 87.7946 48.0118 87.7946 49.8891V66.2552C87.7946 68.1325 86.3024 69.6247 84.4251 69.6247H50.7303ZM54.5811 98.506C54.5811 99.9019 52.5594 100.143 52.2706 98.7948C52.2225 98.5541 52.1743 98.3134 52.1743 98.0246V73.9569C52.1743 73.1385 52.8001 72.5128 53.6184 72.5128H81.537C82.3553 72.5128 82.9811 73.1385 82.9811 73.9569V95.6178C82.9811 96.4361 82.3553 97.0619 81.537 97.0619H56.0252C55.2069 97.0619 54.5811 97.6877 54.5811 98.506Z" fill="#193765"/>
<path d="M64.6891 75.8823H56.5061C55.6878 75.8823 55.062 76.5081 55.062 77.3264V82.1399C55.062 82.9582 55.6878 83.584 56.5061 83.584H64.6891C65.5074 83.584 66.1332 82.9582 66.1332 82.1399V77.3264C66.1332 76.5081 65.5074 75.8823 64.6891 75.8823ZM64.6891 86.4721H56.5061C55.6878 86.4721 55.062 87.0979 55.062 87.9162V92.7298C55.062 93.5481 55.6878 94.1738 56.5061 94.1738H64.6891C65.5074 94.1738 66.1332 93.5481 66.1332 92.7298V87.9162C66.1332 87.0979 65.5074 86.4721 64.6891 86.4721ZM78.6484 75.8823H70.4654C69.6471 75.8823 69.0213 76.5081 69.0213 77.3264V82.1399C69.0213 82.9582 69.6471 83.584 70.4654 83.584H78.6484C79.4667 83.584 80.0925 82.9582 80.0925 82.1399V77.3264C80.0925 76.5081 79.4667 75.8823 78.6484 75.8823ZM78.6484 86.4721H70.4654C69.6471 86.4721 69.0213 87.0979 69.0213 87.9162V92.7298C69.0213 93.5481 69.6471 94.1738 70.4654 94.1738H78.6484C79.4667 94.1738 80.0925 93.5481 80.0925 92.7298V87.9162C80.0925 87.0979 79.4667 86.4721 78.6484 86.4721Z" fill="#73B1FF"/>
</g>
</g>
<defs>
<clipPath id="clip0">
<rect width="137" height="139" fill="white"/>
</clipPath>
<clipPath id="clip1">
<rect width="61.6135" height="61.6135" fill="white" transform="translate(36.771 43.1501)"/>
</clipPath>
</defs>
</svg>
