<svg width="140" height="96" viewBox="0 0 140 96" fill="none" xmlns="http://www.w3.org/2000/svg">
<g clip-path="url(#clip0_1389_4976)">
<rect width="140" height="96" fill="#F6F7FB"/>
<rect x="22" y="-97" width="96.72" height="186" rx="17.9111" fill="white"/>
<g clip-path="url(#clip1_1389_4976)">
<path d="M25 -80H115V83.7284C115 86.6398 112.64 89 109.728 89H30.2716C27.3602 89 25 86.6398 25 83.7284V-80Z" fill="white"/>
<rect width="90.8571" height="196.736" transform="translate(24.1426 -108)" fill="white"/>
<line x1="53.5" y1="0.712891" x2="53.5" y2="-28.1994" stroke="#E5ECED" stroke-width="0.242286"/>
<line x1="85.4003" y1="0.712891" x2="85.4003" y2="-28.1994" stroke="#E5ECED" stroke-width="0.242286"/>
<line x1="24.1426" y1="0.591748" x2="115" y2="0.591748" stroke="#E5ECED" stroke-width="0.242286"/>
<path opacity="0.747" d="M37.7917 19.1689H37.266V13.3061C37.266 13.0972 37.266 12.9149 37.266 12.7591C37.266 12.5998 37.2677 12.4582 37.2713 12.3343C37.2748 12.2068 37.2801 12.0864 37.2872 11.9732C37.1916 12.0687 37.0996 12.1519 37.0111 12.2227C36.9226 12.2936 36.8093 12.3838 36.6712 12.4936L35.5241 13.3645L35.2267 12.9822L37.3403 11.4049H37.7917V19.1689Z" fill="#273D52"/>
<line x1="53.5" y1="29.625" x2="53.5" y2="0.712719" stroke="#E5ECED" stroke-width="0.242286"/>
<path opacity="0.747" d="M71.5305 19.1689H66.6714V18.7122L68.9549 16.3331C69.3196 15.9543 69.6258 15.6126 69.8736 15.3082C70.125 15.0002 70.3144 14.6922 70.4419 14.3841C70.5729 14.0761 70.6384 13.7309 70.6384 13.3486C70.6384 12.8494 70.4914 12.4617 70.1976 12.1856C69.9073 11.9094 69.5125 11.7714 69.0133 11.7714C68.677 11.7714 68.3531 11.8315 68.0415 11.9519C67.7335 12.0723 67.4326 12.2493 67.1387 12.483L66.8413 12.1059C67.0573 11.9289 67.2839 11.7802 67.5211 11.6598C67.7618 11.5395 68.0079 11.4492 68.2592 11.389C68.5106 11.3253 68.762 11.2934 69.0133 11.2934C69.4559 11.2934 69.8382 11.3784 70.1604 11.5483C70.4861 11.7147 70.7393 11.9501 70.9198 12.2546C71.1004 12.5591 71.1907 12.9167 71.1907 13.3273C71.1907 13.7522 71.1163 14.1381 70.9676 14.485C70.8225 14.8285 70.6153 15.1648 70.3463 15.494C70.0772 15.8233 69.7586 16.1773 69.3904 16.5562L67.3671 18.6485V18.6698H71.5305V19.1689Z" fill="#273D52"/>
<line x1="85.4003" y1="29.625" x2="85.4003" y2="0.712719" stroke="#E5ECED" stroke-width="0.242286"/>
<path opacity="0.747" d="M103.181 13.1946C103.181 13.538 103.111 13.8407 102.969 14.1027C102.827 14.3647 102.633 14.5789 102.385 14.7453C102.14 14.9117 101.859 15.0249 101.54 15.0851V15.117C102.149 15.1949 102.615 15.3949 102.937 15.7171C103.259 16.0357 103.42 16.4712 103.42 17.0235C103.42 17.4589 103.318 17.8466 103.112 18.1865C102.907 18.5264 102.597 18.7937 102.183 18.9884C101.772 19.1796 101.255 19.2752 100.632 19.2752C100.211 19.2752 99.8198 19.2362 99.4586 19.1583C99.0975 19.0804 98.7683 18.9725 98.4709 18.8344V18.3086C98.7647 18.4538 99.1028 18.5742 99.4852 18.6698C99.8711 18.7618 100.255 18.8078 100.638 18.8078C101.388 18.8078 101.946 18.6467 102.31 18.3246C102.675 17.9989 102.857 17.5634 102.857 17.0182C102.857 16.6217 102.76 16.3048 102.565 16.0676C102.371 15.8268 102.096 15.6516 101.742 15.5418C101.392 15.4321 100.979 15.3772 100.505 15.3772H99.6551V14.9046H100.51C100.91 14.9046 101.27 14.8426 101.588 14.7187C101.907 14.5913 102.158 14.4036 102.342 14.1558C102.53 13.9044 102.624 13.5929 102.624 13.2211C102.624 12.7396 102.47 12.3768 102.162 12.1325C101.857 11.8882 101.45 11.766 100.94 11.766C100.668 11.766 100.411 11.7944 100.17 11.851C99.933 11.9077 99.7029 11.9909 99.4799 12.1006C99.2604 12.2068 99.0409 12.336 98.8214 12.4883L98.5452 12.1006C98.8497 11.8669 99.2002 11.674 99.5967 11.5218C99.9968 11.3695 100.443 11.2934 100.935 11.2934C101.639 11.2934 102.19 11.4633 102.587 11.8032C102.983 12.1431 103.181 12.6069 103.181 13.1946Z" fill="#273D52"/>
<line x1="24.1426" y1="29.5048" x2="115" y2="29.5048" stroke="#E5ECED" stroke-width="0.242286"/>
<path opacity="0.747" d="M36.746 44.1788C36.746 44.8267 36.6964 45.4002 36.5973 45.8994C36.4982 46.3986 36.3477 46.8181 36.1459 47.158C35.9441 47.4979 35.6874 47.7545 35.3759 47.928C35.0643 48.1015 34.6961 48.1882 34.2713 48.1882C33.7331 48.1882 33.28 48.0378 32.9118 47.7368C32.5436 47.4359 32.2639 46.9881 32.0727 46.3933C31.8851 45.7985 31.7913 45.0603 31.7913 44.1788C31.7913 43.3928 31.8709 42.7007 32.0302 42.1024C32.1931 41.504 32.4568 41.0367 32.8215 40.7004C33.1862 40.364 33.6712 40.1959 34.2766 40.1959C34.8785 40.1959 35.3599 40.3605 35.7211 40.6897C36.0857 41.019 36.3477 41.4828 36.507 42.0811C36.6663 42.6759 36.746 43.3751 36.746 44.1788ZM32.3329 44.1788C32.3329 44.9754 32.402 45.6356 32.54 46.1596C32.6781 46.68 32.8905 47.0695 33.1773 47.3279C33.4641 47.5864 33.8287 47.7156 34.2713 47.7156C34.728 47.7156 35.098 47.5864 35.3812 47.3279C35.6644 47.0695 35.8715 46.6783 36.0025 46.1543C36.1371 45.6303 36.2043 44.9718 36.2043 44.1788C36.2043 43.4495 36.1459 42.8228 36.0291 42.2988C35.9158 41.7749 35.7193 41.373 35.4396 41.0934C35.1599 40.8137 34.7722 40.6738 34.2766 40.6738C33.7916 40.6738 33.4074 40.8172 33.1242 41.104C32.841 41.3907 32.6374 41.7961 32.5135 42.3201C32.3931 42.8441 32.3329 43.4636 32.3329 44.1788ZM42.9593 44.1788C42.9593 44.8267 42.9098 45.4002 42.8106 45.8994C42.7115 46.3986 42.561 46.8181 42.3592 47.158C42.1574 47.4979 41.9008 47.7545 41.5892 47.928C41.2777 48.1015 40.9095 48.1882 40.4846 48.1882C39.9465 48.1882 39.4933 48.0378 39.1251 47.7368C38.7569 47.4359 38.4772 46.9881 38.2861 46.3933C38.0984 45.7985 38.0046 45.0603 38.0046 44.1788C38.0046 43.3928 38.0843 42.7007 38.2436 42.1024C38.4064 41.504 38.6702 41.0367 39.0348 40.7004C39.3995 40.364 39.8845 40.1959 40.4899 40.1959C41.0918 40.1959 41.5733 40.3605 41.9344 40.6897C42.2991 41.019 42.561 41.4828 42.7204 42.0811C42.8797 42.6759 42.9593 43.3751 42.9593 44.1788ZM38.5463 44.1788C38.5463 44.9754 38.6153 45.6356 38.7534 46.1596C38.8915 46.68 39.1039 47.0695 39.3907 47.3279C39.6774 47.5864 40.0421 47.7156 40.4846 47.7156C40.9413 47.7156 41.3113 47.5864 41.5945 47.3279C41.8778 47.0695 42.0849 46.6783 42.2159 46.1543C42.3504 45.6303 42.4177 44.9718 42.4177 44.1788C42.4177 43.4495 42.3592 42.8228 42.2424 42.2988C42.1291 41.7749 41.9326 41.373 41.6529 41.0934C41.3733 40.8137 40.9856 40.6738 40.4899 40.6738C40.0049 40.6738 39.6208 40.8172 39.3375 41.104C39.0543 41.3907 38.8507 41.7961 38.7268 42.3201C38.6065 42.8441 38.5463 43.4636 38.5463 44.1788Z" fill="#273D52"/>
<line x1="53.5" y1="58.5381" x2="53.5" y2="29.6258" stroke="#E5ECED" stroke-width="0.242286"/>
<path opacity="0.747" d="M71.6474 44.1788C71.6474 44.8267 71.5978 45.4002 71.4987 45.8994C71.3995 46.3986 71.2491 46.8181 71.0473 47.158C70.8455 47.4979 70.5888 47.7545 70.2772 47.928C69.9657 48.1015 69.5975 48.1882 69.1726 48.1882C68.6345 48.1882 68.1813 48.0378 67.8131 47.7368C67.445 47.4359 67.1653 46.9881 66.9741 46.3933C66.7864 45.7985 66.6926 45.0603 66.6926 44.1788C66.6926 43.3928 66.7723 42.7007 66.9316 42.1024C67.0945 41.504 67.3582 41.0367 67.7229 40.7004C68.0875 40.364 68.5726 40.1959 69.178 40.1959C69.7798 40.1959 70.2613 40.3605 70.6224 40.6897C70.9871 41.019 71.2491 41.4828 71.4084 42.0811C71.5677 42.6759 71.6474 43.3751 71.6474 44.1788ZM67.2343 44.1788C67.2343 44.9754 67.3033 45.6356 67.4414 46.1596C67.5795 46.68 67.7919 47.0695 68.0787 47.3279C68.3654 47.5864 68.7301 47.7156 69.1726 47.7156C69.6294 47.7156 69.9993 47.5864 70.2826 47.3279C70.5658 47.0695 70.7729 46.6783 70.9039 46.1543C71.0384 45.6303 71.1057 44.9718 71.1057 44.1788C71.1057 43.4495 71.0473 42.8228 70.9304 42.2988C70.8171 41.7749 70.6207 41.373 70.341 41.0934C70.0613 40.8137 69.6736 40.6738 69.178 40.6738C68.6929 40.6738 68.3088 40.8172 68.0256 41.104C67.7423 41.3907 67.5388 41.7961 67.4149 42.3201C67.2945 42.8441 67.2343 43.4636 67.2343 44.1788Z" fill="#273D52"/>
<line x1="85.4003" y1="58.5381" x2="85.4003" y2="29.6258" stroke="#E5ECED" stroke-width="0.242286"/>
<path opacity="0.747" d="M102.364 40.7004C101.868 40.7004 101.425 40.7853 101.036 40.9553C100.646 41.1217 100.317 41.3589 100.048 41.6669C99.779 41.9749 99.5737 42.3431 99.4321 42.7715C99.2905 43.1963 99.2197 43.6654 99.2197 44.1788C99.2197 44.8869 99.3312 45.5064 99.5542 46.0375C99.7773 46.565 100.112 46.9739 100.558 47.2642C101.008 47.5545 101.567 47.6997 102.236 47.6997C102.625 47.6997 102.98 47.6713 103.298 47.6147C103.617 47.5545 103.912 47.4784 104.185 47.3863V47.8643C103.927 47.9599 103.634 48.0378 103.309 48.098C102.987 48.1581 102.611 48.1882 102.183 48.1882C101.408 48.1882 100.756 48.0218 100.229 47.6891C99.7047 47.3563 99.3099 46.8889 99.0444 46.2871C98.7789 45.6852 98.6461 44.9824 98.6461 44.1788C98.6461 43.6017 98.7293 43.0724 98.8957 42.5909C99.0621 42.1059 99.3046 41.6864 99.6233 41.3323C99.9454 40.9747 100.337 40.6986 100.797 40.5039C101.257 40.3056 101.781 40.2065 102.369 40.2065C102.741 40.2065 103.095 40.2437 103.431 40.318C103.771 40.3888 104.089 40.4933 104.387 40.6313L104.174 41.1093C103.888 40.9677 103.594 40.865 103.293 40.8013C102.992 40.734 102.682 40.7004 102.364 40.7004Z" fill="#273D52"/>
<line x1="24.1426" y1="58.4169" x2="115" y2="58.4169" stroke="#E5ECED" stroke-width="0.242286"/>
<path d="M34.1973 68.1087C34.1973 67.7073 34.5227 67.3818 34.9241 67.3818H43.6464C44.0478 67.3818 44.3733 67.7073 44.3733 68.1087V73.1967C44.3733 73.5981 44.0478 73.9235 43.6464 73.9235H34.9241C34.5227 73.9235 34.1973 73.5981 34.1973 73.1967V68.1087Z" fill="#69DA77"/>
<path fill-rule="evenodd" clip-rule="evenodd" d="M43.6464 67.7453H34.9241C34.7234 67.7453 34.5607 67.908 34.5607 68.1087V73.1967C34.5607 73.3974 34.7234 73.5601 34.9241 73.5601H43.6464C43.8471 73.5601 44.0098 73.3974 44.0098 73.1967V68.1087C44.0098 67.908 43.8471 67.7453 43.6464 67.7453ZM34.9241 67.3818C34.5227 67.3818 34.1973 67.7073 34.1973 68.1087V73.1967C34.1973 73.5981 34.5227 73.9235 34.9241 73.9235H43.6464C44.0478 73.9235 44.3733 73.5981 44.3733 73.1967V68.1087C44.3733 67.7073 44.0478 67.3818 43.6464 67.3818H34.9241Z" fill="#16A553"/>
<path d="M34.924 72.5326C34.9421 72.539 34.96 72.5459 34.9778 72.5533C35.1101 72.608 35.2303 72.6884 35.3315 72.7896C35.4327 72.8908 35.513 73.011 35.5678 73.1433C35.5752 73.1611 35.5821 73.179 35.5885 73.1971L34.924 73.1971L34.924 72.5326Z" stroke="#16A553" stroke-width="0.726857"/>
<path d="M34.924 72.5326C34.9421 72.539 34.96 72.5459 34.9778 72.5533C35.1101 72.608 35.2303 72.6884 35.3315 72.7896C35.4327 72.8908 35.513 73.011 35.5678 73.1433C35.5752 73.1611 35.5821 73.179 35.5885 73.1971L34.924 73.1971L34.924 72.5326Z" stroke="#16A553" stroke-width="0.726857"/>
<path d="M35.5885 68.1085C35.5821 68.1266 35.5752 68.1446 35.5678 68.1624C35.513 68.2946 35.4327 68.4148 35.3315 68.5161C35.2303 68.6173 35.1101 68.6976 34.9778 68.7524C34.96 68.7598 34.9421 68.7667 34.924 68.773V68.1085H35.5885Z" stroke="#16A553" stroke-width="0.726857"/>
<path d="M43.6463 68.773C43.6282 68.7667 43.6103 68.7598 43.5925 68.7524C43.4603 68.6976 43.3401 68.6173 43.2388 68.5161C43.1376 68.4148 43.0573 68.2946 43.0025 68.1624C42.9951 68.1446 42.9882 68.1266 42.9818 68.1085L43.6463 68.1085L43.6463 68.773Z" stroke="#16A553" stroke-width="0.726857"/>
<path d="M42.9818 73.1971C42.9882 73.179 42.9951 73.1611 43.0025 73.1433C43.0573 73.011 43.1376 72.8908 43.2388 72.7896C43.3401 72.6884 43.4603 72.608 43.5925 72.5533C43.6103 72.5459 43.6282 72.539 43.6463 72.5326L43.6463 73.1971L42.9818 73.1971Z" stroke="#16A553" stroke-width="0.726857"/>
<circle cx="39.2857" cy="70.6529" r="1.45371" fill="#16A553"/>
<circle cx="36.4992" cy="70.5314" r="0.363429" fill="#16A553"/>
<circle cx="41.8293" cy="70.5314" r="0.363429" fill="#16A553"/>
<path d="M35.731 80.4678H34.4791V78.2193H35.731V78.45H34.7405V79.1774H35.6741V79.4051H34.7405V80.2371H35.731V80.4678ZM37.2812 80.0064C37.2812 80.114 37.254 80.2048 37.1997 80.2786C37.1464 80.3514 37.0695 80.4063 36.969 80.4432C36.8696 80.4801 36.7506 80.4985 36.6122 80.4985C36.4943 80.4985 36.3923 80.4893 36.3062 80.4708C36.22 80.4524 36.1447 80.4262 36.0801 80.3924V80.1571C36.1488 80.1909 36.2308 80.2217 36.3261 80.2494C36.4215 80.2771 36.5189 80.2909 36.6184 80.2909C36.7639 80.2909 36.8696 80.2673 36.9352 80.2202C37.0008 80.173 37.0336 80.1089 37.0336 80.0279C37.0336 79.9818 37.0203 79.9413 36.9936 79.9064C36.968 79.8705 36.9244 79.8362 36.8629 79.8034C36.8014 79.7695 36.7163 79.7326 36.6076 79.6926C36.4999 79.6516 36.4066 79.6111 36.3277 79.5712C36.2498 79.5301 36.1893 79.4804 36.1462 79.422C36.1042 79.3635 36.0832 79.2877 36.0832 79.1944C36.0832 79.0518 36.1406 78.9426 36.2554 78.8668C36.3713 78.7899 36.523 78.7514 36.7106 78.7514C36.8121 78.7514 36.907 78.7617 36.9952 78.7822C37.0844 78.8017 37.1674 78.8283 37.2443 78.8622L37.1582 79.0667C37.0885 79.037 37.0141 79.0119 36.9352 78.9913C36.8562 78.9708 36.7757 78.9606 36.6937 78.9606C36.5758 78.9606 36.4851 78.9801 36.4215 79.019C36.359 79.058 36.3277 79.1113 36.3277 79.179C36.3277 79.2313 36.342 79.2743 36.3707 79.3082C36.4005 79.342 36.4476 79.3738 36.5122 79.4035C36.5768 79.4332 36.6619 79.4681 36.7675 79.5081C36.8731 79.5471 36.9644 79.5876 37.0413 79.6296C37.1182 79.6706 37.1771 79.7208 37.2182 79.7803C37.2602 79.8388 37.2812 79.9141 37.2812 80.0064ZM38.4839 78.7514C38.6941 78.7514 38.8617 78.8237 38.9868 78.9683C39.1119 79.1128 39.1744 79.3302 39.1744 79.6204C39.1744 79.8121 39.1457 79.9731 39.0883 80.1033C39.0309 80.2335 38.9499 80.3319 38.8453 80.3986C38.7417 80.4652 38.6192 80.4985 38.4777 80.4985C38.3885 80.4985 38.3101 80.4867 38.2424 80.4632C38.1748 80.4396 38.1168 80.4078 38.0686 80.3678C38.0205 80.3278 37.9805 80.2842 37.9487 80.2371H37.9302C37.9333 80.2771 37.9369 80.3253 37.941 80.3816C37.9461 80.438 37.9487 80.4873 37.9487 80.5293V81.2214H37.6918V78.7822H37.9025L37.9364 79.0313H37.9487C37.9815 78.9801 38.0215 78.9334 38.0686 78.8914C38.1158 78.8483 38.1732 78.8145 38.2409 78.7899C38.3096 78.7642 38.3906 78.7514 38.4839 78.7514ZM38.4393 78.9667C38.3224 78.9667 38.2281 78.9893 38.1563 79.0344C38.0856 79.0795 38.0338 79.1472 38.001 79.2374C37.9682 79.3266 37.9507 79.4389 37.9487 79.5742V79.6234C37.9487 79.766 37.9641 79.8864 37.9948 79.9849C38.0266 80.0833 38.0784 80.1581 38.1502 80.2094C38.2229 80.2607 38.3204 80.2863 38.4424 80.2863C38.5469 80.2863 38.6341 80.2581 38.7038 80.2017C38.7735 80.1453 38.8253 80.0669 38.8591 79.9664C38.894 79.8649 38.9114 79.7485 38.9114 79.6173C38.9114 79.4184 38.8725 79.2605 38.7946 79.1436C38.7177 79.0257 38.5992 78.9667 38.4393 78.9667ZM40.2694 78.7514C40.413 78.7514 40.536 78.7832 40.6385 78.8468C40.7411 78.9103 40.8195 78.9995 40.8739 79.1144C40.9282 79.2282 40.9554 79.3615 40.9554 79.5142V79.6727H39.7911C39.7942 79.8705 39.8434 80.0213 39.9388 80.1248C40.0341 80.2284 40.1685 80.2801 40.3417 80.2801C40.4484 80.2801 40.5427 80.2704 40.6247 80.2509C40.7067 80.2314 40.7918 80.2027 40.88 80.1648V80.3893C40.7949 80.4273 40.7103 80.455 40.6262 80.4724C40.5432 80.4898 40.4448 80.4985 40.331 80.4985C40.169 80.4985 40.0275 80.4657 39.9065 80.4001C39.7865 80.3335 39.6932 80.2361 39.6266 80.1079C39.5599 79.9797 39.5266 79.8229 39.5266 79.6373C39.5266 79.4558 39.5569 79.2989 39.6174 79.1667C39.6789 79.0334 39.765 78.9309 39.8757 78.8591C39.9875 78.7873 40.1187 78.7514 40.2694 78.7514ZM40.2664 78.9606C40.13 78.9606 40.0213 79.0052 39.9403 79.0944C39.8593 79.1836 39.8111 79.3082 39.7958 79.4681H40.6878C40.6867 79.3676 40.6708 79.2795 40.6401 79.2036C40.6104 79.1267 40.5647 79.0672 40.5032 79.0252C40.4417 78.9821 40.3627 78.9606 40.2664 78.9606ZM40.1418 78.0547C40.1664 78.1019 40.1966 78.1547 40.2325 78.2131C40.2694 78.2706 40.3079 78.327 40.3479 78.3823C40.3889 78.4367 40.4263 78.4833 40.4601 78.5223V78.5592H40.2864C40.2494 78.5294 40.2089 78.4941 40.1649 78.4531C40.1218 78.4121 40.0787 78.369 40.0357 78.3239C39.9926 78.2777 39.9537 78.2342 39.9188 78.1932C39.8839 78.1511 39.8568 78.1152 39.8373 78.0855V78.0547H40.1418ZM42.0642 80.4985C41.9125 80.4985 41.7787 80.4673 41.6628 80.4047C41.547 80.3422 41.4567 80.2468 41.3921 80.1187C41.3275 79.9905 41.2953 79.829 41.2953 79.6342C41.2953 79.4302 41.3291 79.2636 41.3968 79.1344C41.4655 79.0042 41.5598 78.9078 41.6797 78.8452C41.7997 78.7827 41.9361 78.7514 42.0888 78.7514C42.1729 78.7514 42.2539 78.7601 42.3318 78.7776C42.4108 78.794 42.4754 78.815 42.5256 78.8406L42.4487 79.0544C42.3974 79.0339 42.338 79.0154 42.2703 78.999C42.2037 78.9826 42.1411 78.9744 42.0827 78.9744C41.9658 78.9744 41.8684 78.9995 41.7905 79.0498C41.7136 79.1 41.6556 79.1738 41.6167 79.2713C41.5787 79.3687 41.5598 79.4886 41.5598 79.6311C41.5598 79.7675 41.5782 79.8839 41.6151 79.9802C41.6531 80.0766 41.709 80.1504 41.7828 80.2017C41.8576 80.2519 41.9509 80.2771 42.0627 80.2771C42.1519 80.2771 42.2324 80.2678 42.3041 80.2494C42.3759 80.2299 42.441 80.2073 42.4995 80.1817V80.4093C42.4431 80.438 42.38 80.4601 42.3103 80.4755C42.2416 80.4908 42.1596 80.4985 42.0642 80.4985ZM43.5483 78.7514C43.6919 78.7514 43.8149 78.7832 43.9175 78.8468C44.02 78.9103 44.0984 78.9995 44.1528 79.1144C44.2071 79.2282 44.2343 79.3615 44.2343 79.5142V79.6727H43.07C43.0731 79.8705 43.1223 80.0213 43.2177 80.1248C43.313 80.2284 43.4474 80.2801 43.6206 80.2801C43.7273 80.2801 43.8216 80.2704 43.9036 80.2509C43.9856 80.2314 44.0707 80.2027 44.1589 80.1648V80.3893C44.0738 80.4273 43.9892 80.455 43.9051 80.4724C43.8221 80.4898 43.7237 80.4985 43.6099 80.4985C43.4479 80.4985 43.3064 80.4657 43.1854 80.4001C43.0654 80.3335 42.9721 80.2361 42.9055 80.1079C42.8388 79.9797 42.8055 79.8229 42.8055 79.6373C42.8055 79.4558 42.8358 79.2989 42.8963 79.1667C42.9578 79.0334 43.0439 78.9309 43.1546 78.8591C43.2664 78.7873 43.3976 78.7514 43.5483 78.7514ZM43.5453 78.9606C43.4089 78.9606 43.3002 79.0052 43.2192 79.0944C43.1382 79.1836 43.09 79.3082 43.0747 79.4681H43.9667C43.9656 79.3676 43.9497 79.2795 43.919 79.2036C43.8893 79.1267 43.8436 79.0672 43.7821 79.0252C43.7206 78.9821 43.6416 78.9606 43.5453 78.9606Z" fill="#273D52" fill-opacity="0.7"/>
<path d="M64.4824 67.9876C64.4824 67.5862 64.8078 67.2607 65.2093 67.2607H73.9316C74.333 67.2607 74.6584 67.5862 74.6584 67.9876V73.0756C74.6584 73.477 74.333 73.8025 73.9316 73.8025H65.2093C64.8078 73.8025 64.4824 73.477 64.4824 73.0756V67.9876Z" fill="#1E87E3"/>
<path d="M64.4824 68.1087C64.4824 67.7073 64.8078 67.3818 65.2093 67.3818H73.9316C74.333 67.3818 74.6584 67.7073 74.6584 68.1087V73.1967C74.6584 73.5981 74.333 73.9235 73.9316 73.9235H65.2093C64.8078 73.9235 64.4824 73.5981 64.4824 73.1967V68.1087Z" fill="#1E87E3"/>
<path d="M65.21 68.3507C65.21 68.15 65.3727 67.9873 65.5734 67.9873H67.0271C67.2278 67.9873 67.3905 68.15 67.3905 68.3507V69.0776C67.3905 69.2783 67.2278 69.441 67.0271 69.441H65.5734C65.3727 69.441 65.21 69.2783 65.21 69.0776V68.3507Z" fill="#FED330"/>
<path d="M67.3905 68.7142V69.0776C67.3905 69.2783 67.2278 69.441 67.0271 69.441H65.5734C65.3727 69.441 65.21 69.2783 65.21 69.0776V68.7142H67.3905Z" fill="#F7B731"/>
<path fill-rule="evenodd" clip-rule="evenodd" d="M70.915 70.1441C70.9951 70.0836 71.1091 70.0996 71.1695 70.1797C71.2858 70.3337 71.4583 70.7428 71.1695 71.1255C71.1091 71.2056 70.9951 71.2215 70.915 71.1611C70.8349 71.1006 70.819 70.9867 70.8794 70.9065C71.0295 70.7077 70.9461 70.4869 70.8794 70.3986C70.819 70.3185 70.8349 70.2045 70.915 70.1441Z" fill="#A4CFFF"/>
<path fill-rule="evenodd" clip-rule="evenodd" d="M71.8232 69.4175C71.9034 69.3571 72.0173 69.373 72.0777 69.4531C72.3768 69.8494 72.8053 70.8885 72.0777 71.8526C72.0173 71.9327 71.9034 71.9487 71.8232 71.8882C71.7431 71.8278 71.7272 71.7138 71.7877 71.6337C72.3765 70.8534 72.0371 70.0026 71.7877 69.672C71.7272 69.5919 71.7431 69.478 71.8232 69.4175Z" fill="#A4CFFF"/>
<path fill-rule="evenodd" clip-rule="evenodd" d="M72.7324 68.691C72.8125 68.6305 72.9265 68.6465 72.9869 68.7266C73.4688 69.3651 74.1533 71.0341 72.9869 72.5798C72.9265 72.6599 72.8125 72.6758 72.7324 72.6154C72.6523 72.5549 72.6364 72.441 72.6968 72.3608C73.7245 70.9991 73.1291 69.5183 72.6968 68.9455C72.6364 68.8654 72.6523 68.7514 72.7324 68.691Z" fill="#A4CFFF"/>
<path d="M68.829 78.4177C68.705 78.4177 68.5932 78.4392 68.4937 78.4823C68.3953 78.5243 68.3112 78.5858 68.2415 78.6668C68.1728 78.7468 68.12 78.8437 68.0831 78.9575C68.0462 79.0713 68.0278 79.1995 68.0278 79.342C68.0278 79.5307 68.057 79.6947 68.1154 79.8341C68.1749 79.9726 68.2631 80.0797 68.3799 80.1556C68.4979 80.2314 68.645 80.2694 68.8213 80.2694C68.9218 80.2694 69.0161 80.2612 69.1043 80.2448C69.1935 80.2273 69.2802 80.2058 69.3642 80.1802V80.4078C69.2822 80.4386 69.1961 80.4611 69.1059 80.4755C69.0156 80.4908 68.9085 80.4985 68.7844 80.4985C68.5558 80.4985 68.3646 80.4514 68.2108 80.357C68.058 80.2617 67.9432 80.1274 67.8663 79.9541C67.7904 79.7808 67.7525 79.5763 67.7525 79.3405C67.7525 79.1703 67.776 79.0149 67.8232 78.8745C67.8714 78.733 67.9411 78.611 68.0324 78.5084C68.1246 78.4059 68.2374 78.327 68.3707 78.2716C68.505 78.2152 68.6588 78.187 68.8321 78.187C68.9459 78.187 69.0556 78.1983 69.1612 78.2208C69.2668 78.2434 69.3622 78.2757 69.4473 78.3177L69.3427 78.5392C69.2709 78.5064 69.192 78.4782 69.1059 78.4546C69.0208 78.43 68.9285 78.4177 68.829 78.4177ZM69.8518 78.2193H70.4885C70.7694 78.2193 70.9806 78.2613 71.1221 78.3454C71.2636 78.4295 71.3343 78.5725 71.3343 78.7745C71.3343 78.8616 71.3174 78.9401 71.2836 79.0098C71.2508 79.0785 71.2026 79.1354 71.139 79.1805C71.0754 79.2256 70.997 79.2569 70.9037 79.2743V79.2897C71.0021 79.3051 71.0893 79.3333 71.1652 79.3743C71.241 79.4153 71.3005 79.4727 71.3436 79.5465C71.3866 79.6204 71.4082 79.7142 71.4082 79.828C71.4082 79.9664 71.3759 80.0833 71.3113 80.1786C71.2477 80.274 71.1575 80.3463 71.0406 80.3955C70.9237 80.4437 70.7853 80.4678 70.6253 80.4678H69.8518V78.2193ZM70.1132 79.1836H70.5438C70.7397 79.1836 70.875 79.1513 70.9499 79.0867C71.0257 79.0221 71.0637 78.9278 71.0637 78.8037C71.0637 78.6756 71.0185 78.5833 70.9283 78.5269C70.8391 78.4705 70.6966 78.4423 70.5008 78.4423H70.1132V79.1836ZM70.1132 79.4035V80.2448H70.5807C70.7807 80.2448 70.9222 80.2058 71.0052 80.1279C71.0883 80.0489 71.1298 79.9428 71.1298 79.8095C71.1298 79.7244 71.1108 79.6516 71.0729 79.5911C71.036 79.5307 70.9755 79.4845 70.8914 79.4527C70.8084 79.4199 70.6971 79.4035 70.5577 79.4035H70.1132Z" fill="#273D52" fill-opacity="0.7"/>
<g clip-path="url(#clip2_1389_4976)">
<path d="M94.7686 68.7142C94.7686 68.3127 95.094 67.9873 95.4954 67.9873H104.218C104.619 67.9873 104.945 68.3127 104.945 68.7142V72.3484C104.945 72.7499 104.619 73.0753 104.218 73.0753H95.4954C95.094 73.0753 94.7686 72.7499 94.7686 72.3484V68.7142Z" fill="#DDEDFF"/>
<path fill-rule="evenodd" clip-rule="evenodd" d="M96.2223 68.2298C96.2223 67.8284 95.8968 67.5029 95.4954 67.5029C95.094 67.5029 94.7686 67.8284 94.7686 68.2298V73.0755H96.2223V68.2298Z" fill="#BDD9F6"/>
<path fill-rule="evenodd" clip-rule="evenodd" d="M96.2223 73.0755C96.2223 72.6741 95.8968 72.3486 95.4954 72.3486C95.094 72.3486 94.7686 72.6741 94.7686 73.0755C94.7686 73.4769 95.094 73.8023 95.4954 73.8023H103.006C103.408 73.8023 103.733 73.4769 103.733 73.0755H96.2223Z" fill="#96BEE8"/>
<path d="M102.928 71.9L102.226 71.7119L102.389 72.5081L102.928 71.9Z" fill="#2C8EDF"/>
<path d="M102.928 71.9004L102.226 71.7123L103.389 67.3696C103.441 67.1758 103.64 67.0607 103.834 67.1127V67.1127C104.028 67.1646 104.143 67.3639 104.091 67.5578L102.928 71.9004Z" fill="#2C8EDF"/>
<rect width="0.726858" height="1.45371" transform="matrix(-0.965926 -0.258819 -0.258819 0.965926 103.304 70.4961)" fill="#B0DBFF"/>
<path fill-rule="evenodd" clip-rule="evenodd" d="M104.111 69.286C104.208 69.312 104.307 69.2544 104.333 69.1575L104.521 68.4554C104.599 68.1646 104.427 67.8657 104.136 67.7877L103.837 67.7076C103.74 67.6817 103.64 67.7392 103.614 67.8361C103.588 67.9331 103.646 68.0327 103.743 68.0587L104.042 68.1388C104.139 68.1648 104.196 68.2644 104.17 68.3613L103.982 69.0634C103.956 69.1604 104.014 69.26 104.111 69.286Z" fill="#2C8EDF"/>
<path d="M96.9492 70.4714C96.9492 70.371 97.0306 70.2897 97.1309 70.2897H101.129C101.229 70.2897 101.31 70.371 101.31 70.4714C101.31 70.5717 101.229 70.6531 101.129 70.6531H97.1309C97.0306 70.6531 96.9492 70.5717 96.9492 70.4714Z" fill="#AECDEF"/>
<path d="M96.9492 71.9251C96.9492 71.8247 97.0306 71.7434 97.1309 71.7434H98.2212C98.3216 71.7434 98.4029 71.8247 98.4029 71.9251C98.4029 72.0254 98.3216 72.1068 98.2212 72.1068H97.1309C97.0306 72.1068 96.9492 72.0254 96.9492 71.9251Z" fill="#AECDEF"/>
<path d="M99.1298 71.9251C99.1298 71.8247 99.2111 71.7434 99.3115 71.7434H100.402C100.502 71.7434 100.584 71.8247 100.584 71.9251C100.584 72.0254 100.502 72.1068 100.402 72.1068H99.3115C99.2111 72.1068 99.1298 72.0254 99.1298 71.9251Z" fill="#AECDEF"/>
<path d="M96.9492 69.0177C96.9492 68.9173 97.0306 68.8359 97.1309 68.8359H99.3115C99.4119 68.8359 99.4932 68.9173 99.4932 69.0177C99.4932 69.118 99.4119 69.1994 99.3115 69.1994H97.1309C97.0306 69.1994 96.9492 69.118 96.9492 69.0177Z" fill="#AECDEF"/>
</g>
<path d="M95.4687 78.4177C95.3446 78.4177 95.2329 78.4392 95.1334 78.4823C95.035 78.5243 94.9509 78.5858 94.8812 78.6668C94.8125 78.7468 94.7597 78.8437 94.7228 78.9575C94.6859 79.0713 94.6674 79.1995 94.6674 79.342C94.6674 79.5307 94.6966 79.6947 94.7551 79.8341C94.8145 79.9726 94.9027 80.0797 95.0196 80.1556C95.1375 80.2314 95.2846 80.2694 95.461 80.2694C95.5615 80.2694 95.6558 80.2612 95.744 80.2448C95.8332 80.2273 95.9198 80.2058 96.0039 80.1802V80.4078C95.9219 80.4386 95.8357 80.4611 95.7455 80.4755C95.6553 80.4908 95.5481 80.4985 95.4241 80.4985C95.1954 80.4985 95.0042 80.4514 94.8504 80.357C94.6977 80.2617 94.5828 80.1274 94.5059 79.9541C94.4301 79.7808 94.3921 79.5763 94.3921 79.3405C94.3921 79.1703 94.4157 79.0149 94.4629 78.8745C94.5111 78.733 94.5808 78.611 94.672 78.5084C94.7643 78.4059 94.8771 78.327 95.0104 78.2716C95.1447 78.2152 95.2985 78.187 95.4718 78.187C95.5856 78.187 95.6953 78.1983 95.8009 78.2208C95.9065 78.2434 96.0018 78.2757 96.0869 78.3177L95.9824 78.5392C95.9106 78.5064 95.8316 78.4782 95.7455 78.4546C95.6604 78.43 95.5681 78.4177 95.4687 78.4177ZM96.7083 78.0747V78.7899C96.7083 78.8309 96.7072 78.8724 96.7052 78.9144C96.7031 78.9555 96.6996 78.9934 96.6944 79.0283H96.7113C96.7462 78.9688 96.7903 78.9191 96.8436 78.8791C96.8979 78.8381 96.9595 78.8073 97.0282 78.7868C97.0969 78.7653 97.1697 78.7545 97.2466 78.7545C97.3819 78.7545 97.4947 78.776 97.5849 78.8191C97.6762 78.8622 97.7443 78.9288 97.7894 79.019C97.8356 79.1093 97.8587 79.2261 97.8587 79.3697V80.4678H97.6064V79.3866C97.6064 79.2461 97.5741 79.141 97.5095 79.0713C97.446 79.0016 97.3481 78.9667 97.2158 78.9667C97.0907 78.9667 96.9907 78.9908 96.9159 79.039C96.8421 79.0862 96.7888 79.1559 96.7559 79.2482C96.7242 79.3405 96.7083 79.4532 96.7083 79.5865V80.4678H96.453V78.0747H96.7083ZM99.0336 78.7514C99.1772 78.7514 99.3002 78.7832 99.4028 78.8468C99.5053 78.9103 99.5837 78.9995 99.6381 79.1144C99.6924 79.2282 99.7196 79.3615 99.7196 79.5142V79.6727H98.5553C98.5584 79.8705 98.6076 80.0213 98.703 80.1248C98.7983 80.2284 98.9327 80.2801 99.1059 80.2801C99.2126 80.2801 99.3069 80.2704 99.3889 80.2509C99.4709 80.2314 99.556 80.2027 99.6442 80.1648V80.3893C99.5591 80.4273 99.4745 80.455 99.3904 80.4724C99.3074 80.4898 99.209 80.4985 99.0952 80.4985C98.9332 80.4985 98.7917 80.4657 98.6707 80.4001C98.5507 80.3335 98.4574 80.2361 98.3908 80.1079C98.3241 79.9797 98.2908 79.8229 98.2908 79.6373C98.2908 79.4558 98.3211 79.2989 98.3816 79.1667C98.4431 79.0334 98.5292 78.9309 98.6399 78.8591C98.7517 78.7873 98.8829 78.7514 99.0336 78.7514ZM99.0306 78.9606C98.8942 78.9606 98.7855 79.0052 98.7045 79.0944C98.6235 79.1836 98.5753 79.3082 98.56 79.4681H99.452C99.4509 79.3676 99.435 79.2795 99.4043 79.2036C99.3746 79.1267 99.3289 79.0672 99.2674 79.0252C99.2059 78.9821 99.1269 78.9606 99.0306 78.9606ZM98.906 78.0547C98.9306 78.1019 98.9608 78.1547 98.9967 78.2131C99.0336 78.2706 99.0721 78.327 99.1121 78.3823C99.1531 78.4367 99.1905 78.4833 99.2243 78.5223V78.5592H99.0506C99.0137 78.5294 98.9732 78.4941 98.9291 78.4531C98.886 78.4121 98.8429 78.369 98.7999 78.3239C98.7568 78.2777 98.7179 78.2342 98.683 78.1932C98.6481 78.1511 98.621 78.1152 98.6015 78.0855V78.0547H98.906ZM101.284 81.2214V80.4985C101.284 80.4585 101.285 80.4124 101.287 80.3601C101.289 80.3078 101.292 80.2627 101.298 80.2248H101.281C101.233 80.3027 101.166 80.3678 101.079 80.4201C100.992 80.4724 100.88 80.4985 100.742 80.4985C100.536 80.4985 100.371 80.4257 100.246 80.2801C100.12 80.1346 100.058 79.9172 100.058 79.6281C100.058 79.4384 100.087 79.2784 100.144 79.1482C100.201 79.018 100.282 78.9196 100.387 78.8529C100.493 78.7853 100.616 78.7514 100.756 78.7514C100.89 78.7514 101 78.7781 101.085 78.8314C101.17 78.8837 101.237 78.9478 101.285 79.0236H101.298L101.336 78.7822H101.539V81.2214H101.284ZM100.79 80.2863C100.909 80.2863 101.004 80.2643 101.076 80.2202C101.148 80.1751 101.2 80.1074 101.233 80.0172C101.267 79.9269 101.285 79.8147 101.287 79.6803V79.6265C101.287 79.4092 101.25 79.2446 101.176 79.1328C101.102 79.0201 100.974 78.9637 100.79 78.9637C100.632 78.9637 100.515 79.0242 100.438 79.1451C100.361 79.2651 100.322 79.4281 100.322 79.6342C100.322 79.8403 100.361 80.0008 100.438 80.1156C100.515 80.2294 100.632 80.2863 100.79 80.2863ZM103.474 78.7822V80.4678H103.265L103.228 80.2309H103.214C103.179 80.2894 103.134 80.3386 103.078 80.3786C103.023 80.4186 102.961 80.4483 102.891 80.4678C102.822 80.4883 102.749 80.4985 102.671 80.4985C102.538 80.4985 102.426 80.477 102.336 80.4339C102.245 80.3909 102.177 80.3242 102.131 80.234C102.086 80.1438 102.063 80.0279 102.063 79.8864V78.7822H102.322V79.868C102.322 80.0084 102.354 80.1135 102.417 80.1833C102.481 80.2519 102.578 80.2863 102.708 80.2863C102.833 80.2863 102.932 80.2627 103.006 80.2156C103.081 80.1684 103.135 80.0992 103.168 80.0079C103.2 79.9157 103.217 79.8029 103.217 79.6696V78.7822H103.474ZM104.663 78.7514C104.806 78.7514 104.929 78.7832 105.032 78.8468C105.134 78.9103 105.213 78.9995 105.267 79.1144C105.321 79.2282 105.348 79.3615 105.348 79.5142V79.6727H104.184C104.187 79.8705 104.237 80.0213 104.332 80.1248C104.427 80.2284 104.562 80.2801 104.735 80.2801C104.841 80.2801 104.936 80.2704 105.018 80.2509C105.1 80.2314 105.185 80.2027 105.273 80.1648V80.3893C105.188 80.4273 105.103 80.455 105.019 80.4724C104.936 80.4898 104.838 80.4985 104.724 80.4985C104.562 80.4985 104.421 80.4657 104.3 80.4001C104.18 80.3335 104.086 80.2361 104.02 80.1079C103.953 79.9797 103.92 79.8229 103.92 79.6373C103.92 79.4558 103.95 79.2989 104.01 79.1667C104.072 79.0334 104.158 78.9309 104.269 78.8591C104.381 78.7873 104.512 78.7514 104.663 78.7514ZM104.659 78.9606C104.523 78.9606 104.414 79.0052 104.333 79.0944C104.252 79.1836 104.204 79.3082 104.189 79.4681H105.081C105.08 79.3676 105.064 79.2795 105.033 79.2036C105.003 79.1267 104.958 79.0672 104.896 79.0252C104.835 78.9821 104.756 78.9606 104.659 78.9606Z" fill="#273D52" fill-opacity="0.7"/>
</g>
<rect x="23.8715" y="-95.1285" width="92.8697" height="182.528" rx="12.3519" stroke="#273D52" stroke-width="3.743"/>
</g>
<defs>
<clipPath id="clip0_1389_4976">
<rect width="140" height="96" fill="white"/>
</clipPath>
<clipPath id="clip1_1389_4976">
<path d="M25 -80H115V83.7284C115 86.6398 112.64 89 109.728 89H30.2716C27.3602 89 25 86.6398 25 83.7284V-80Z" fill="white"/>
</clipPath>
<clipPath id="clip2_1389_4976">
<rect width="11.6297" height="11.6297" fill="white" transform="translate(94.042 64.8379)"/>
</clipPath>
</defs>
</svg>
