<svg width="140" height="96" viewBox="0 0 140 96" fill="none" xmlns="http://www.w3.org/2000/svg">
<g clip-path="url(#clip0_1682_17074)">
<rect width="140" height="96" fill="#F6F7FB"/>
<rect x="22" y="8" width="96.72" height="186" rx="17.9111" fill="white"/>
<g clip-path="url(#clip1_1682_17074)">
<path d="M25 11H115V174.728C115 177.64 112.64 180 109.728 180H30.2716C27.3602 180 25 177.64 25 174.728V11Z" fill="white"/>
<rect width="90" height="194.88" transform="translate(25 11)" fill="#F6F7FB"/>
<rect width="90" height="20.64" transform="translate(25 11)" fill="white"/>
<path d="M30.236 17.9674C30.236 18.4736 30.134 18.8516 29.9301 19.1012C29.7262 19.3508 29.4192 19.4756 29.009 19.4756C28.8532 19.4756 28.7412 19.4662 28.6733 19.4475V19.1012C28.7776 19.1305 28.8825 19.1451 28.9879 19.1451C29.2668 19.1451 29.4748 19.0701 29.612 18.9201C29.7491 18.7701 29.8241 18.5346 29.837 18.2135H29.8159C29.7467 18.3189 29.6629 18.3951 29.5645 18.442C29.4672 18.4889 29.353 18.5123 29.2217 18.5123C28.9944 18.5123 28.8157 18.4414 28.6856 18.2996C28.5555 18.1578 28.4905 17.9633 28.4905 17.716C28.4905 17.4477 28.5655 17.2344 28.7155 17.0762C28.8666 16.9168 29.0723 16.8371 29.3325 16.8371C29.5153 16.8371 29.6746 16.8816 29.8106 16.9707C29.9465 17.0598 30.0514 17.1893 30.1252 17.3592C30.1991 17.5279 30.236 17.7307 30.236 17.9674ZM29.3395 17.1799C29.1965 17.1799 29.087 17.2268 29.0108 17.3205C28.9346 17.4131 28.8965 17.5437 28.8965 17.7125C28.8965 17.859 28.9317 17.9744 29.002 18.0588C29.0735 18.142 29.1813 18.1836 29.3254 18.1836C29.4649 18.1836 29.5821 18.142 29.677 18.0588C29.7719 17.9756 29.8194 17.8783 29.8194 17.767C29.8194 17.6627 29.7989 17.5654 29.7579 17.4752C29.718 17.3838 29.6618 17.3117 29.5891 17.259C29.5164 17.2062 29.4332 17.1799 29.3395 17.1799ZM30.5497 19.2207C30.5497 19.1352 30.572 19.0695 30.6165 19.0238C30.6611 18.9781 30.7255 18.9553 30.8099 18.9553C30.8954 18.9553 30.9605 18.9793 31.005 19.0273C31.0495 19.0742 31.0718 19.1387 31.0718 19.2207C31.0718 19.3039 31.0489 19.3701 31.0032 19.4193C30.9587 19.4674 30.8943 19.4914 30.8099 19.4914C30.7255 19.4914 30.6611 19.4674 30.6165 19.4193C30.572 19.3713 30.5497 19.3051 30.5497 19.2207ZM30.5497 17.7195C30.5497 17.5426 30.6364 17.4541 30.8099 17.4541C30.8978 17.4541 30.9634 17.4775 31.0068 17.5244C31.0501 17.5713 31.0718 17.6363 31.0718 17.7195C31.0718 17.8027 31.0489 17.8689 31.0032 17.9182C30.9587 17.9662 30.8943 17.9902 30.8099 17.9902C30.7255 17.9902 30.6611 17.9662 30.6165 17.9182C30.572 17.8701 30.5497 17.8039 30.5497 17.7195ZM33.2189 18.8797H32.8727V19.4404H32.4701V18.8797H31.2959V18.5615L32.4701 16.8635H32.8727V18.5369H33.2189V18.8797ZM32.4701 18.5369V17.8918C32.4701 17.6621 32.476 17.474 32.4877 17.3275H32.4736C32.4408 17.4049 32.3893 17.4986 32.3189 17.6088L31.6809 18.5369H32.4701ZM34.5751 19.4404H34.162V17.7811C34.162 17.583 34.1667 17.426 34.1761 17.31C34.1491 17.3381 34.1157 17.3691 34.0759 17.4031C34.0372 17.4371 33.9059 17.5449 33.6821 17.7266L33.4747 17.4646L34.2305 16.8705H34.5751V19.4404Z" fill="black"/>
<rect opacity="0.35" x="106.239" y="15.5184" width="5.04" height="2.48" rx="0.52" stroke="black" stroke-width="0.24"/>
<path opacity="0.4" d="M111.639 16.2803V17.2403C111.833 17.159 111.959 16.9698 111.959 16.7603C111.959 16.5507 111.833 16.3616 111.639 16.2803Z" fill="black"/>
<rect x="106.6" y="15.8789" width="4.32" height="1.76" rx="0.32" fill="black"/>
<path fill-rule="evenodd" clip-rule="evenodd" d="M103.079 15.9381C103.613 15.9381 104.127 16.1392 104.514 16.4997C104.543 16.5275 104.589 16.5272 104.618 16.4989L104.897 16.2234C104.911 16.2091 104.919 16.1897 104.919 16.1695C104.919 16.1493 104.911 16.1299 104.896 16.1158C103.88 15.1619 102.278 15.1619 101.262 16.1158C101.248 16.1299 101.239 16.1493 101.239 16.1695C101.239 16.1897 101.247 16.2091 101.262 16.2234L101.54 16.4989C101.569 16.5272 101.616 16.5276 101.645 16.4997C102.032 16.1392 102.545 15.9381 103.079 15.9381ZM103.079 16.8324C103.373 16.8324 103.656 16.942 103.874 17.1399C103.904 17.168 103.95 17.1674 103.979 17.1385L104.257 16.856C104.272 16.8412 104.28 16.8211 104.28 16.8002C104.28 16.7793 104.271 16.7594 104.256 16.7449C103.593 16.1258 102.566 16.1258 101.903 16.7449C101.888 16.7594 101.88 16.7793 101.88 16.8002C101.88 16.8211 101.888 16.8412 101.902 16.856L102.181 17.1385C102.21 17.1674 102.256 17.168 102.285 17.1399C102.503 16.9421 102.786 16.8326 103.079 16.8324ZM103.639 17.4858C103.64 17.5064 103.631 17.5261 103.616 17.5405L103.133 18.0184C103.119 18.0324 103.099 18.0403 103.079 18.0403C103.059 18.0403 103.04 18.0324 103.026 18.0184L102.542 17.5405C102.527 17.5261 102.519 17.5063 102.519 17.4858C102.52 17.4653 102.529 17.4459 102.544 17.4322C102.853 17.1764 103.305 17.1764 103.614 17.4322C103.63 17.4459 103.639 17.4653 103.639 17.4858Z" fill="black"/>
<path d="M31.7835 25.3604H28.1578C28.0043 25.3604 27.8799 25.4926 27.8799 25.6556C27.8799 25.8187 28.0043 25.9509 28.1578 25.9509H31.7835C31.937 25.9509 32.0614 25.8187 32.0614 25.6556C32.0614 25.4926 31.937 25.3604 31.7835 25.3604Z" fill="#273D52"/>
<path d="M31.7835 26.7852H28.1578C28.0043 26.7852 27.8799 26.9174 27.8799 27.0804C27.8799 27.2435 28.0043 27.3757 28.1578 27.3757H31.7835C31.937 27.3757 32.0614 27.2435 32.0614 27.0804C32.0614 26.9174 31.937 26.7852 31.7835 26.7852Z" fill="#273D52"/>
<path d="M31.7835 28.209H28.1578C28.0043 28.209 27.8799 28.3412 27.8799 28.5043C27.8799 28.6674 28.0043 28.7996 28.1578 28.7996H31.7835C31.937 28.7996 32.0614 28.6674 32.0614 28.5043C32.0614 28.3412 31.937 28.209 31.7835 28.209Z" fill="#273D52"/>
<path d="M39.6459 25.8071H40.0105L38.9606 28.7197H38.6259L37.582 25.8071H37.9406L38.61 27.6918C38.687 27.9082 38.7481 28.1187 38.7933 28.3233C38.8411 28.1081 38.9035 27.8936 38.9805 27.6798L39.6459 25.8071ZM41.2855 28.7596C40.9628 28.7596 40.7078 28.6613 40.5205 28.4647C40.3346 28.2682 40.2416 27.9952 40.2416 27.6459C40.2416 27.294 40.3279 27.0144 40.5006 26.8072C40.6746 26.6 40.9077 26.4964 41.1998 26.4964C41.4734 26.4964 41.6899 26.5868 41.8493 26.7674C42.0087 26.9467 42.0884 27.1837 42.0884 27.4786V27.6878H40.5843C40.5909 27.9441 40.6553 28.1387 40.7775 28.2715C40.901 28.4043 41.0743 28.4707 41.2975 28.4707C41.5325 28.4707 41.765 28.4216 41.9947 28.3233V28.6181C41.8779 28.6686 41.767 28.7045 41.662 28.7257C41.5584 28.7483 41.4329 28.7596 41.2855 28.7596ZM41.1959 26.7734C41.0205 26.7734 40.8804 26.8305 40.7755 26.9447C40.6719 27.0589 40.6108 27.217 40.5922 27.4188H41.7338C41.7338 27.2103 41.6873 27.0509 41.5943 26.9407C41.5013 26.8291 41.3685 26.7734 41.1959 26.7734ZM44.1483 28.7197V27.3073C44.1483 27.1293 44.1078 26.9965 44.0268 26.9088C43.9457 26.8212 43.8189 26.7773 43.6463 26.7773C43.4178 26.7773 43.2505 26.8391 43.1442 26.9626C43.038 27.0861 42.9848 27.29 42.9848 27.5742V28.7197H42.6541V26.5363H42.9231L42.9769 26.8351H42.9928C43.0605 26.7275 43.1555 26.6445 43.2777 26.5861C43.3999 26.5263 43.536 26.4964 43.6861 26.4964C43.9491 26.4964 44.147 26.5602 44.2798 26.6877C44.4126 26.8139 44.479 27.0164 44.479 27.2953V28.7197H44.1483ZM45.8655 28.4866C45.924 28.4866 45.9804 28.4827 46.0349 28.4747C46.0893 28.4654 46.1325 28.4561 46.1644 28.4468V28.6998C46.1285 28.7171 46.0754 28.731 46.005 28.7416C45.9359 28.7536 45.8735 28.7596 45.8177 28.7596C45.3954 28.7596 45.1842 28.5371 45.1842 28.0922V26.7933H44.8714V26.6339L45.1842 26.4964L45.3237 26.0303H45.5149V26.5363H46.1484V26.7933H45.5149V28.0782C45.5149 28.2097 45.5461 28.3107 45.6086 28.3811C45.671 28.4514 45.7566 28.4866 45.8655 28.4866ZM47.525 28.7596C47.2023 28.7596 46.9473 28.6613 46.76 28.4647C46.5741 28.2682 46.4811 27.9952 46.4811 27.6459C46.4811 27.294 46.5675 27.0144 46.7401 26.8072C46.9141 26.6 47.1472 26.4964 47.4394 26.4964C47.713 26.4964 47.9295 26.5868 48.0888 26.7674C48.2482 26.9467 48.3279 27.1837 48.3279 27.4786V27.6878H46.8238C46.8304 27.9441 46.8948 28.1387 47.017 28.2715C47.1405 28.4043 47.3139 28.4707 47.537 28.4707C47.7721 28.4707 48.0045 28.4216 48.2343 28.3233V28.6181C48.1174 28.6686 48.0065 28.7045 47.9016 28.7257C47.798 28.7483 47.6725 28.7596 47.525 28.7596ZM47.4354 26.7734C47.2601 26.7734 47.12 26.8305 47.015 26.9447C46.9114 27.0589 46.8504 27.217 46.8318 27.4188H47.9733C47.9733 27.2103 47.9268 27.0509 47.8338 26.9407C47.7409 26.8291 47.608 26.7734 47.4354 26.7734ZM50.3021 28.1241C50.3021 28.3273 50.2264 28.484 50.075 28.5942C49.9236 28.7045 49.7111 28.7596 49.4375 28.7596C49.148 28.7596 48.9222 28.7137 48.7602 28.6221V28.3153C48.8651 28.3684 48.9773 28.4103 49.0969 28.4408C49.2177 28.4714 49.3339 28.4866 49.4455 28.4866C49.6182 28.4866 49.751 28.4594 49.8439 28.405C49.9369 28.3492 49.9834 28.2648 49.9834 28.152C49.9834 28.067 49.9462 27.9946 49.8718 27.9348C49.7988 27.8737 49.6554 27.802 49.4415 27.7196C49.2383 27.6439 49.0936 27.5782 49.0072 27.5224C48.9222 27.4653 48.8585 27.4009 48.816 27.3292C48.7748 27.2575 48.7542 27.1718 48.7542 27.0722C48.7542 26.8942 48.8266 26.7541 48.9714 26.6518C49.1161 26.5482 49.3147 26.4964 49.567 26.4964C49.8021 26.4964 50.0319 26.5443 50.2563 26.6399L50.1388 26.9088C49.9196 26.8185 49.7211 26.7734 49.5431 26.7734C49.3864 26.7734 49.2682 26.7979 49.1885 26.8471C49.1088 26.8962 49.069 26.9639 49.069 27.0503C49.069 27.1087 49.0836 27.1585 49.1128 27.1997C49.1434 27.2409 49.1918 27.28 49.2582 27.3172C49.3246 27.3544 49.4521 27.4082 49.6407 27.4786C49.8997 27.5729 50.0744 27.6679 50.1647 27.7635C50.2563 27.8591 50.3021 27.9793 50.3021 28.1241Z" fill="#273D52"/>
<path d="M55.0065 28.7197H53.3829V25.8071H55.0065V26.108H53.7215V27.0463H54.9288V27.3451H53.7215V28.4169H55.0065V28.7197ZM56.1301 27.6021L55.3711 26.5363H55.7476L56.3233 27.373L56.8971 26.5363H57.2696L56.5106 27.6021L57.3095 28.7197H56.9349L56.3233 27.8352L55.7057 28.7197H55.3312L56.1301 27.6021ZM58.7598 28.7596C58.6177 28.7596 58.4875 28.7337 58.3693 28.6819C58.2524 28.6287 58.1541 28.5477 58.0745 28.4388H58.0505C58.0665 28.5663 58.0745 28.6872 58.0745 28.8014V29.6999H57.7438V26.5363H58.0127L58.0585 26.8351H58.0745C58.1595 26.7156 58.2584 26.6293 58.3713 26.5761C58.4842 26.523 58.6137 26.4964 58.7598 26.4964C59.0493 26.4964 59.2724 26.5954 59.4291 26.7933C59.5872 26.9912 59.6662 27.2687 59.6662 27.626C59.6662 27.9846 59.5859 28.2635 59.4252 28.4627C59.2658 28.6606 59.044 28.7596 58.7598 28.7596ZM58.712 26.7773C58.4888 26.7773 58.3275 26.8391 58.2279 26.9626C58.1282 27.0861 58.0771 27.2827 58.0745 27.5523V27.626C58.0745 27.9328 58.1256 28.1526 58.2279 28.2854C58.3301 28.4169 58.4941 28.4827 58.7199 28.4827C58.9085 28.4827 59.0559 28.4063 59.1622 28.2536C59.2698 28.1008 59.3236 27.8903 59.3236 27.622C59.3236 27.3498 59.2698 27.1412 59.1622 26.9965C59.0559 26.8504 58.9059 26.7773 58.712 26.7773ZM62.1305 27.626C62.1305 27.982 62.0409 28.2602 61.8616 28.4607C61.6823 28.66 61.4346 28.7596 61.1185 28.7596C60.9233 28.7596 60.75 28.7137 60.5986 28.6221C60.4471 28.5305 60.3303 28.399 60.2479 28.2277C60.1656 28.0563 60.1244 27.8558 60.1244 27.626C60.1244 27.2701 60.2134 26.9932 60.3914 26.7953C60.5693 26.5961 60.8164 26.4964 61.1325 26.4964C61.4379 26.4964 61.6803 26.598 61.8596 26.8012C62.0402 27.0045 62.1305 27.2794 62.1305 27.626ZM60.4671 27.626C60.4671 27.9049 60.5229 28.1174 60.6344 28.2635C60.746 28.4096 60.91 28.4827 61.1265 28.4827C61.343 28.4827 61.507 28.4103 61.6186 28.2655C61.7314 28.1194 61.7879 27.9062 61.7879 27.626C61.7879 27.3484 61.7314 27.1379 61.6186 26.9945C61.507 26.8497 61.3416 26.7773 61.1225 26.7773C60.906 26.7773 60.7427 26.8484 60.6324 26.9905C60.5222 27.1326 60.4671 27.3445 60.4671 27.626ZM63.7084 26.4964C63.8053 26.4964 63.8923 26.5044 63.9693 26.5204L63.9235 26.8271C63.8332 26.8072 63.7535 26.7973 63.6845 26.7973C63.5078 26.7973 63.3564 26.869 63.2302 27.0124C63.1054 27.1559 63.043 27.3345 63.043 27.5483V28.7197H62.7123V26.5363H62.9852L63.023 26.9407H63.039C63.12 26.7986 63.2176 26.689 63.3318 26.612C63.4461 26.535 63.5716 26.4964 63.7084 26.4964ZM65.083 28.4866C65.1414 28.4866 65.1979 28.4827 65.2523 28.4747C65.3068 28.4654 65.3499 28.4561 65.3818 28.4468V28.6998C65.3459 28.7171 65.2928 28.731 65.2224 28.7416C65.1534 28.7536 65.0909 28.7596 65.0352 28.7596C64.6128 28.7596 64.4016 28.5371 64.4016 28.0922V26.7933H64.0889V26.6339L64.4016 26.4964L64.5411 26.0303H64.7323V26.5363H65.3659V26.7933H64.7323V28.0782C64.7323 28.2097 64.7636 28.3107 64.826 28.3811C64.8884 28.4514 64.9741 28.4866 65.083 28.4866Z" fill="#273D52"/>
<rect x="52.9824" y="30.9199" width="13" height="0.72" fill="#055A4A"/>
<line x1="112.12" y1="31.7596" x2="27.8801" y2="31.7597" stroke="#E5ECED" stroke-width="0.24"/>
<rect x="27.9999" y="38.9598" width="31.92" height="8.6" rx="4.3" fill="white"/>
<path d="M33.7434 44.7598L33.4234 43.9424H32.3934L32.077 44.7598H31.7746L32.7906 42.1793H33.042L34.0527 44.7598H33.7434ZM33.3303 43.6734L33.0314 42.8771C32.9928 42.7764 32.9529 42.6527 32.9119 42.5062C32.8861 42.6187 32.8492 42.7424 32.8012 42.8771L32.4988 43.6734H33.3303ZM34.6363 42.8332V44.083C34.6363 44.24 34.6721 44.3572 34.7436 44.4346C34.815 44.5119 34.927 44.5506 35.0793 44.5506C35.2809 44.5506 35.4279 44.4955 35.5205 44.3854C35.6143 44.2752 35.6611 44.0953 35.6611 43.8457V42.8332H35.9529V44.7598H35.7121L35.6699 44.5014H35.6541C35.5943 44.5963 35.5111 44.6689 35.4045 44.7193C35.299 44.7697 35.1783 44.7949 35.0424 44.7949C34.808 44.7949 34.6322 44.7393 34.515 44.6279C34.399 44.5166 34.341 44.3385 34.341 44.0936V42.8332H34.6363ZM36.3396 45.6246C36.2283 45.6246 36.1381 45.61 36.0689 45.5807V45.3434C36.1498 45.3668 36.2295 45.3785 36.308 45.3785C36.3994 45.3785 36.4662 45.3533 36.5084 45.3029C36.5518 45.2537 36.5734 45.1781 36.5734 45.0762V42.8332H36.8652V45.0551C36.8652 45.4348 36.69 45.6246 36.3396 45.6246ZM36.5488 42.3111C36.5488 42.2443 36.5652 42.1957 36.598 42.1652C36.6309 42.1336 36.6719 42.1178 36.7211 42.1178C36.768 42.1178 36.8084 42.1336 36.8424 42.1652C36.8764 42.1969 36.8934 42.2455 36.8934 42.3111C36.8934 42.3768 36.8764 42.426 36.8424 42.4588C36.8084 42.4904 36.768 42.5062 36.7211 42.5062C36.6719 42.5062 36.6309 42.4904 36.598 42.4588C36.5652 42.426 36.5488 42.3768 36.5488 42.3111ZM39.1469 43.7947C39.1469 44.1088 39.0678 44.3543 38.9096 44.5312C38.7514 44.707 38.5328 44.7949 38.2539 44.7949C38.0816 44.7949 37.9287 44.7545 37.7951 44.6736C37.6615 44.5928 37.5584 44.4768 37.4857 44.3256C37.4131 44.1744 37.3768 43.9975 37.3768 43.7947C37.3768 43.4807 37.4553 43.2363 37.6123 43.0617C37.7693 42.8859 37.9873 42.798 38.2662 42.798C38.5357 42.798 38.7496 42.8877 38.9078 43.067C39.0672 43.2463 39.1469 43.4889 39.1469 43.7947ZM37.6791 43.7947C37.6791 44.0408 37.7283 44.2283 37.8268 44.3572C37.9252 44.4861 38.0699 44.5506 38.2609 44.5506C38.452 44.5506 38.5967 44.4867 38.6951 44.359C38.7947 44.2301 38.8445 44.042 38.8445 43.7947C38.8445 43.5498 38.7947 43.3641 38.6951 43.2375C38.5967 43.1098 38.4508 43.0459 38.2574 43.0459C38.0664 43.0459 37.9223 43.1086 37.825 43.234C37.7277 43.3594 37.6791 43.5463 37.6791 43.7947ZM39.9344 42.8332V44.083C39.9344 44.24 39.9701 44.3572 40.0416 44.4346C40.1131 44.5119 40.225 44.5506 40.3773 44.5506C40.5789 44.5506 40.726 44.4955 40.8186 44.3854C40.9123 44.2752 40.9592 44.0953 40.9592 43.8457V42.8332H41.251V44.7598H41.0102L40.968 44.5014H40.9521C40.8924 44.5963 40.8092 44.6689 40.7025 44.7193C40.5971 44.7697 40.4764 44.7949 40.3404 44.7949C40.1061 44.7949 39.9303 44.7393 39.8131 44.6279C39.6971 44.5166 39.6391 44.3385 39.6391 44.0936V42.8332H39.9344ZM42.7504 42.798C42.8359 42.798 42.9127 42.8051 42.9807 42.8191L42.9402 43.0898C42.8605 43.0723 42.7902 43.0635 42.7293 43.0635C42.5734 43.0635 42.4398 43.1268 42.3285 43.2533C42.2184 43.3799 42.1633 43.5375 42.1633 43.7262V44.7598H41.8715V42.8332H42.1123L42.1457 43.19H42.1598C42.2312 43.0646 42.3174 42.968 42.4182 42.9C42.5189 42.832 42.6297 42.798 42.7504 42.798ZM44.6523 44.5014H44.6365C44.5018 44.6971 44.3002 44.7949 44.0318 44.7949C43.7799 44.7949 43.5836 44.7088 43.443 44.5365C43.3035 44.3643 43.2338 44.1193 43.2338 43.8018C43.2338 43.4842 43.3041 43.2375 43.4447 43.0617C43.5854 42.8859 43.7811 42.798 44.0318 42.798C44.2932 42.798 44.4936 42.893 44.633 43.0828H44.6559L44.6436 42.9439L44.6365 42.8086V42.0246H44.9283V44.7598H44.691L44.6523 44.5014ZM44.0688 44.5506C44.268 44.5506 44.4121 44.4967 44.5012 44.3889C44.5914 44.2799 44.6365 44.1047 44.6365 43.8633V43.8018C44.6365 43.5287 44.5908 43.3342 44.4994 43.2182C44.4092 43.101 44.2645 43.0424 44.0652 43.0424C43.8941 43.0424 43.7629 43.1092 43.6715 43.2428C43.5813 43.3752 43.5361 43.5627 43.5361 43.8053C43.5361 44.0514 43.5813 44.2371 43.6715 44.3625C43.7617 44.4879 43.8941 44.5506 44.0688 44.5506ZM45.7826 42.1898L45.809 42.2285C45.7785 42.3457 45.7346 42.4822 45.6771 42.6381C45.6197 42.7928 45.56 42.9369 45.4979 43.0705H45.2834C45.3654 42.7365 45.4252 42.443 45.4627 42.1898H45.7826ZM47.4789 44.7598V43.5135C47.4789 43.3564 47.4432 43.2393 47.3717 43.1619C47.3002 43.0846 47.1883 43.0459 47.0359 43.0459C46.8332 43.0459 46.685 43.101 46.5912 43.2111C46.4986 43.3213 46.4523 43.5018 46.4523 43.7525V44.7598H46.1605V42.0246H46.4523V42.8525C46.4523 42.9521 46.4477 43.0348 46.4383 43.1004H46.4559C46.5133 43.0078 46.5947 42.9352 46.7002 42.8824C46.8068 42.8285 46.9281 42.8016 47.0641 42.8016C47.2996 42.8016 47.476 42.8578 47.5932 42.9703C47.7115 43.0816 47.7707 43.2592 47.7707 43.5029V44.7598H47.4789ZM48.6461 42.8332V44.083C48.6461 44.24 48.6818 44.3572 48.7533 44.4346C48.8248 44.5119 48.9367 44.5506 49.0891 44.5506C49.2906 44.5506 49.4377 44.4955 49.5303 44.3854C49.624 44.2752 49.6709 44.0953 49.6709 43.8457V42.8332H49.9627V44.7598H49.7219L49.6797 44.5014H49.6639C49.6041 44.5963 49.5209 44.6689 49.4143 44.7193C49.3088 44.7697 49.1881 44.7949 49.0521 44.7949C48.8178 44.7949 48.642 44.7393 48.5248 44.6279C48.4088 44.5166 48.3508 44.3385 48.3508 44.0936V42.8332H48.6461ZM50.875 44.7598H50.5832V42.8332H50.875V44.7598ZM50.5586 42.3111C50.5586 42.2443 50.575 42.1957 50.6078 42.1652C50.6406 42.1336 50.6816 42.1178 50.7309 42.1178C50.7777 42.1178 50.8182 42.1336 50.8521 42.1652C50.8861 42.1969 50.9031 42.2455 50.9031 42.3111C50.9031 42.3768 50.8861 42.426 50.8521 42.4588C50.8182 42.4904 50.7777 42.5062 50.7309 42.5062C50.6816 42.5062 50.6406 42.4904 50.6078 42.4588C50.575 42.426 50.5586 42.3768 50.5586 42.3111Z" fill="#273D52"/>
<path fill-rule="evenodd" clip-rule="evenodd" d="M53.9165 42.5738C53.9641 42.5277 54.0401 42.529 54.0862 42.5766L55.1599 43.6874L56.2336 42.5766C56.2797 42.529 56.3556 42.5277 56.4033 42.5738C56.4509 42.6198 56.4522 42.6958 56.4062 42.7434L55.2462 43.9434C55.2236 43.9668 55.1924 43.98 55.1599 43.98C55.1274 43.98 55.0962 43.9668 55.0736 43.9434L53.9136 42.7434C53.8675 42.6958 53.8688 42.6198 53.9165 42.5738Z" fill="#273D52"/>
<rect x="27.9999" y="38.9598" width="31.92" height="8.6" rx="4.3" stroke="#E5ECED" stroke-width="0.24"/>
<rect x="27.9997" y="52.1999" width="83.8805" height="14.1398" rx="1.07846" fill="white"/>
<path d="M34.5137 60.6008L34.7854 56.6172H37.9698L38.206 60.6008H34.5137Z" fill="#6B968B"/>
<path d="M35.3542 62.7468L35.1268 58.3857H31.9422L31.7148 62.7468H35.3542Z" fill="#A8C4CD"/>
<path d="M38.0839 61.0967H35.127V62.7469H38.0839V61.0967Z" fill="#F9CD74"/>
<path d="M38.3114 60.3896H34.8994V61.0968H38.3114V60.3896Z" fill="#F9B659"/>
<path d="M37.0593 60.3896H36.1494V62.747H37.0593V60.3896Z" fill="#EB9850"/>
<path d="M34.1037 62.2747H31.9428C31.9126 62.2747 31.8837 62.2623 31.8624 62.2402C31.8411 62.2181 31.8291 62.1881 31.8291 62.1569C31.8291 62.1256 31.8411 62.0957 31.8624 62.0736C31.8837 62.0515 31.9126 62.0391 31.9428 62.0391H34.1037C34.1339 62.0391 34.1628 62.0515 34.1841 62.0736C34.2055 62.0957 34.2174 62.1256 34.2174 62.1569C34.2174 62.1881 34.2055 62.2181 34.1841 62.2402C34.1628 62.2623 34.1339 62.2747 34.1037 62.2747V62.2747Z" fill="#C4DEED"/>
<path d="M34.6727 62.2747H34.559C34.5289 62.2747 34.4999 62.2623 34.4786 62.2402C34.4573 62.2181 34.4453 62.1881 34.4453 62.1569C34.4453 62.1256 34.4573 62.0957 34.4786 62.0736C34.4999 62.0515 34.5289 62.0391 34.559 62.0391H34.6727C34.7029 62.0391 34.7318 62.0515 34.7531 62.0736C34.7744 62.0957 34.7864 62.1256 34.7864 62.1569C34.7864 62.1881 34.7744 62.2181 34.7531 62.2402C34.7318 62.2623 34.7029 62.2747 34.6727 62.2747V62.2747Z" fill="#C4DEED"/>
<path d="M36.7869 60.5068H36.6049C36.5748 60.5068 36.5458 60.4944 36.5245 60.4723C36.5032 60.4502 36.4912 60.4202 36.4912 60.389V60.2003C36.4917 59.9692 36.5805 59.7476 36.7383 59.5841C36.896 59.4207 37.1098 59.3286 37.3328 59.3281H37.5148C37.545 59.3281 37.5739 59.3405 37.5952 59.3626C37.6166 59.3847 37.6285 59.4147 37.6285 59.446V59.6346C37.6285 59.6988 37.6217 59.7628 37.6083 59.8255C37.605 59.8406 37.599 59.8549 37.5904 59.8676C37.5818 59.8803 37.5709 59.8911 37.5583 59.8994C37.5457 59.9077 37.5316 59.9134 37.5169 59.9161C37.5022 59.9187 37.4871 59.9184 37.4725 59.915C37.4579 59.9117 37.4441 59.9053 37.4319 59.8965C37.4196 59.8876 37.4092 59.8763 37.4012 59.8632C37.3932 59.8501 37.3877 59.8355 37.3851 59.8203C37.3825 59.805 37.3829 59.7894 37.3861 59.7743C37.396 59.7284 37.401 59.6815 37.401 59.6344V59.5645H37.3335C37.1707 59.5648 37.0146 59.6319 36.8995 59.7512C36.7843 59.8705 36.7195 60.0323 36.7193 60.201V60.271H36.7868C36.8703 60.2713 36.953 60.2538 37.0298 60.2195C37.1066 60.1853 37.1757 60.1351 37.2329 60.072C37.243 60.0606 37.2552 60.0513 37.2687 60.0448C37.2823 60.0382 37.2969 60.0345 37.3119 60.0338C37.3268 60.0331 37.3417 60.0355 37.3557 60.0408C37.3698 60.0461 37.3827 60.0542 37.3937 60.0647C37.4047 60.0751 37.4137 60.0877 37.42 60.1018C37.4263 60.1158 37.4299 60.131 37.4305 60.1464C37.4312 60.1619 37.4289 60.1774 37.4238 60.1919C37.4187 60.2065 37.4109 60.2199 37.4008 60.2313L37.3981 60.2342C37.3197 60.3207 37.225 60.3895 37.1199 60.4364C37.0147 60.4833 36.9014 60.5073 36.7869 60.5068V60.5068Z" fill="#F9CD74"/>
<path d="M36.6047 60.5068H36.4227C36.1996 60.5063 35.9858 60.4142 35.8281 60.2508C35.6704 60.0873 35.5815 59.8658 35.5811 59.6346V59.446C35.5811 59.4147 35.593 59.3847 35.6144 59.3626C35.6357 59.3405 35.6646 59.3281 35.6948 59.3281H35.8768C36.0998 59.3286 36.3136 59.4207 36.4713 59.5841C36.6291 59.7476 36.7179 59.9692 36.7184 60.2003V60.389C36.7184 60.4202 36.7064 60.4502 36.6851 60.4723C36.6637 60.4944 36.6348 60.5068 36.6047 60.5068V60.5068ZM35.8086 59.5638V59.6337C35.8089 59.8025 35.8737 59.9642 35.9888 60.0835C36.1039 60.2028 36.26 60.27 36.4228 60.2703H36.4903V60.2003C36.49 60.0316 36.4252 59.8699 36.3101 59.7505C36.195 59.6312 36.0389 59.5641 35.8761 59.5638H35.8086Z" fill="#F9CD74"/>
<path d="M37.4 57.0895C37.3699 57.0895 37.341 57.0771 37.3196 57.055C37.2983 57.0329 37.2863 57.0029 37.2863 56.9716C37.288 56.8467 37.2657 56.7227 37.2207 56.6068C37.1757 56.491 37.1089 56.3855 37.0243 56.2966C36.9396 56.2076 36.8388 56.137 36.7276 56.0888C36.6164 56.0406 36.497 56.0158 36.3765 56.0158C36.256 56.0158 36.1366 56.0406 36.0254 56.0888C35.9142 56.137 35.8134 56.2076 35.7287 56.2966C35.6441 56.3855 35.5773 56.491 35.5323 56.6068C35.4873 56.7227 35.465 56.8467 35.4667 56.9716C35.4667 57.0029 35.4547 57.0329 35.4334 57.055C35.412 57.0771 35.3831 57.0895 35.353 57.0895C35.3228 57.0895 35.2939 57.0771 35.2726 57.055C35.2512 57.0329 35.2393 57.0029 35.2393 56.9716C35.2393 56.659 35.3591 56.3592 35.5724 56.1382C35.7857 55.9172 36.0749 55.793 36.3766 55.793C36.6782 55.793 36.9675 55.9172 37.1808 56.1382C37.3941 56.3592 37.5139 56.659 37.5139 56.9716C37.5139 56.9871 37.5109 57.0025 37.5052 57.0168C37.4995 57.0311 37.4911 57.0441 37.4805 57.055C37.47 57.066 37.4574 57.0746 37.4436 57.0806C37.4298 57.0865 37.415 57.0895 37.4 57.0895V57.0895Z" fill="#608778"/>
<path d="M35.354 57.679C35.2865 57.679 35.2205 57.6583 35.1644 57.6194C35.1082 57.5806 35.0645 57.5253 35.0387 57.4607C35.0128 57.3961 35.0061 57.325 35.0193 57.2564C35.0324 57.1877 35.0649 57.1247 35.1127 57.0753C35.1604 57.0258 35.2212 56.9921 35.2874 56.9785C35.3536 56.9648 35.4222 56.9718 35.4846 56.9986C35.5469 57.0254 35.6002 57.0707 35.6377 57.1289C35.6752 57.187 35.6952 57.2554 35.6952 57.3254C35.6952 57.4192 35.6593 57.5091 35.5953 57.5754C35.5313 57.6418 35.4445 57.679 35.354 57.679V57.679ZM35.354 57.207C35.3315 57.207 35.3095 57.2139 35.2908 57.2269C35.2721 57.2398 35.2575 57.2582 35.2489 57.2797C35.2403 57.3013 35.2381 57.325 35.2424 57.3478C35.2468 57.3707 35.2577 57.3917 35.2736 57.4081C35.2895 57.4246 35.3097 57.4358 35.3318 57.4404C35.3538 57.4449 35.3767 57.4426 35.3975 57.4337C35.4182 57.4248 35.436 57.4097 35.4485 57.3903C35.461 57.3709 35.4677 57.3481 35.4677 57.3248C35.4675 57.2937 35.4555 57.2638 35.4342 57.2418C35.4129 57.2199 35.384 57.2075 35.354 57.2075V57.207Z" fill="#608778"/>
<path d="M37.3999 57.679C37.3324 57.679 37.2664 57.6583 37.2103 57.6194C37.1541 57.5806 37.1104 57.5253 37.0846 57.4607C37.0587 57.3961 37.052 57.325 37.0652 57.2564C37.0783 57.1877 37.1108 57.1247 37.1585 57.0753C37.2063 57.0258 37.2671 56.9921 37.3333 56.9785C37.3995 56.9648 37.4681 56.9718 37.5305 56.9986C37.5928 57.0254 37.6461 57.0707 37.6836 57.1289C37.7211 57.187 37.7411 57.2554 37.7411 57.3254C37.7411 57.4192 37.7052 57.5091 37.6412 57.5754C37.5772 57.6418 37.4904 57.679 37.3999 57.679V57.679ZM37.3999 57.207C37.3774 57.207 37.3554 57.2139 37.3367 57.2269C37.318 57.2398 37.3034 57.2582 37.2948 57.2797C37.2862 57.3013 37.284 57.325 37.2883 57.3478C37.2927 57.3707 37.3036 57.3917 37.3195 57.4081C37.3354 57.4246 37.3556 57.4358 37.3777 57.4404C37.3997 57.4449 37.4226 57.4426 37.4434 57.4337C37.4641 57.4248 37.4819 57.4097 37.4944 57.3903C37.5069 57.3709 37.5136 57.3481 37.5136 57.3248C37.5134 57.2937 37.5014 57.2638 37.4801 57.2418C37.4588 57.2199 37.4299 57.2075 37.3999 57.2075V57.207Z" fill="#608778"/>
<path d="M34.5573 58.8571C34.5271 58.8571 34.4982 58.8446 34.4769 58.8225C34.4555 58.8004 34.4436 58.7705 34.4436 58.7392C34.4403 58.4914 34.343 58.2548 34.1727 58.0807C34.0025 57.9067 33.7729 57.8091 33.5337 57.8091C33.2945 57.8091 33.065 57.9067 32.8947 58.0807C32.7244 58.2548 32.6271 58.4914 32.6239 58.7392C32.6239 58.7705 32.6119 58.8004 32.5906 58.8225C32.5693 58.8446 32.5403 58.8571 32.5102 58.8571C32.48 58.8571 32.4511 58.8446 32.4298 58.8225C32.4085 58.8004 32.3965 58.7705 32.3965 58.7392C32.3965 58.4266 32.5163 58.1268 32.7296 57.9058C32.9429 57.6847 33.2322 57.5605 33.5338 57.5605C33.8354 57.5605 34.1247 57.6847 34.338 57.9058C34.5513 58.1268 34.6711 58.4266 34.6711 58.7392C34.6711 58.7547 34.6682 58.77 34.6625 58.7844C34.6567 58.7987 34.6483 58.8117 34.6378 58.8226C34.6272 58.8335 34.6146 58.8422 34.6008 58.8481C34.587 58.854 34.5722 58.8571 34.5573 58.8571Z" fill="#608778"/>
<path d="M32.5102 59.4466C32.4427 59.4466 32.3767 59.4259 32.3206 59.387C32.2645 59.3481 32.2208 59.2929 32.1949 59.2283C32.1691 59.1637 32.1623 59.0925 32.1755 59.0239C32.1887 58.9553 32.2212 58.8923 32.2689 58.8428C32.3166 58.7934 32.3774 58.7597 32.4436 58.7461C32.5098 58.7324 32.5784 58.7394 32.6408 58.7662C32.7032 58.7929 32.7565 58.8383 32.794 58.8964C32.8315 58.9546 32.8515 59.023 32.8515 59.0929C32.8515 59.1394 32.8426 59.1854 32.8255 59.2283C32.8083 59.2712 32.7832 59.3102 32.7515 59.343C32.7198 59.3759 32.6822 59.4019 32.6408 59.4197C32.5994 59.4375 32.555 59.4466 32.5102 59.4466V59.4466ZM32.5102 58.9746C32.4877 58.9746 32.4657 58.9815 32.447 58.9944C32.4283 59.0074 32.4138 59.0258 32.4052 59.0473C32.3966 59.0688 32.3943 59.0925 32.3987 59.1154C32.4031 59.1383 32.4139 59.1592 32.4298 59.1757C32.4457 59.1922 32.466 59.2034 32.488 59.208C32.5101 59.2125 32.5329 59.2102 32.5537 59.2013C32.5745 59.1924 32.5923 59.1772 32.6047 59.1579C32.6172 59.1385 32.6239 59.1157 32.6239 59.0924C32.6238 59.0612 32.6117 59.0314 32.5904 59.0094C32.5691 58.9874 32.5403 58.9751 32.5102 58.9751V58.9746Z" fill="#608778"/>
<path d="M34.5581 59.4466C34.4906 59.4466 34.4246 59.4259 34.3685 59.387C34.3123 59.3481 34.2686 59.2929 34.2428 59.2283C34.2169 59.1637 34.2102 59.0925 34.2234 59.0239C34.2365 58.9553 34.269 58.8923 34.3168 58.8428C34.3645 58.7934 34.4253 58.7597 34.4915 58.7461C34.5577 58.7324 34.6263 58.7394 34.6887 58.7662C34.751 58.7929 34.8043 58.8383 34.8418 58.8964C34.8793 58.9546 34.8993 59.023 34.8993 59.0929C34.8993 59.1867 34.8634 59.2767 34.7994 59.343C34.7354 59.4093 34.6486 59.4466 34.5581 59.4466V59.4466ZM34.5581 58.9746C34.5356 58.9746 34.5136 58.9815 34.4949 58.9944C34.4762 59.0074 34.4616 59.0258 34.453 59.0473C34.4444 59.0688 34.4422 59.0925 34.4465 59.1154C34.4509 59.1383 34.4618 59.1592 34.4777 59.1757C34.4936 59.1922 34.5138 59.2034 34.5359 59.208C34.5579 59.2125 34.5808 59.2102 34.6016 59.2013C34.6223 59.1924 34.6401 59.1772 34.6526 59.1579C34.6651 59.1385 34.6718 59.1157 34.6718 59.0924C34.6716 59.0612 34.6596 59.0314 34.6383 59.0094C34.617 58.9874 34.5881 58.9751 34.5581 58.9751V58.9746Z" fill="#608778"/>
<path d="M46.7995 58.2033L45.8779 60.7695H45.5778L44.6562 58.2033H44.9687L45.569 59.8936C45.5936 59.9615 45.6152 60.0264 45.634 60.0885C45.6539 60.1505 45.6714 60.2102 45.6866 60.2675C45.7018 60.3249 45.7153 60.3804 45.727 60.4343C45.7387 60.3804 45.7521 60.3249 45.7674 60.2675C45.7826 60.209 45.8001 60.1487 45.82 60.0867C45.8399 60.0235 45.8621 59.9574 45.8867 59.8884L46.4835 58.2033H46.7995ZM47.8492 58.8106C48.013 58.8106 48.1534 58.8469 48.2704 58.9194C48.3875 58.992 48.477 59.0938 48.539 59.2249C48.601 59.3548 48.632 59.5069 48.632 59.6812V59.862H47.3033C47.3068 60.0879 47.3629 60.2599 47.4718 60.3781C47.5806 60.4963 47.7339 60.5554 47.9317 60.5554C48.0534 60.5554 48.161 60.5443 48.2546 60.522C48.3483 60.4998 48.4454 60.467 48.546 60.4237V60.68C48.4489 60.7233 48.3524 60.7549 48.2564 60.7748C48.1616 60.7947 48.0493 60.8046 47.9194 60.8046C47.7345 60.8046 47.573 60.7672 47.4349 60.6923C47.298 60.6162 47.1915 60.5051 47.1154 60.3588C47.0394 60.2125 47.0013 60.0335 47.0013 59.8217C47.0013 59.6145 47.0359 59.4355 47.1049 59.2845C47.1751 59.1324 47.2734 59.0154 47.3998 58.9335C47.5274 58.8516 47.6771 58.8106 47.8492 58.8106ZM47.8457 59.0493C47.69 59.0493 47.566 59.1002 47.4735 59.202C47.3811 59.3038 47.3261 59.446 47.3085 59.6286H48.3266C48.3254 59.5139 48.3073 59.4133 48.2722 59.3267C48.2383 59.2389 48.1862 59.171 48.116 59.123C48.0458 59.0739 47.9556 59.0493 47.8457 59.0493ZM50.038 58.8106C50.2662 58.8106 50.4388 58.8668 50.5559 58.9791C50.6729 59.0903 50.7314 59.2693 50.7314 59.5162V60.7695H50.4435V59.5355C50.4435 59.3752 50.4066 59.2553 50.3329 59.1757C50.2604 59.0961 50.1486 59.0563 49.9977 59.0563C49.7847 59.0563 49.6349 59.1166 49.5483 59.2371C49.4617 59.3577 49.4184 59.5326 49.4184 59.762V60.7695H49.127V58.8457H49.3622L49.4061 59.123H49.4219C49.4629 59.0552 49.515 58.9984 49.5781 58.9528C49.6413 58.906 49.7121 58.8709 49.7905 58.8475C49.8689 58.8229 49.9514 58.8106 50.038 58.8106ZM51.9531 60.5659C52.0011 60.5659 52.0502 60.5618 52.1005 60.5536C52.1508 60.5454 52.1918 60.5355 52.2234 60.5238V60.7502C52.1895 60.7654 52.1421 60.7783 52.0812 60.7888C52.0215 60.7994 51.963 60.8046 51.9057 60.8046C51.8039 60.8046 51.7114 60.7871 51.6283 60.752C51.5453 60.7157 51.4786 60.6549 51.4282 60.5694C51.3791 60.484 51.3545 60.3658 51.3545 60.2149V59.0739H51.0807V58.9317L51.3563 58.8176L51.4721 58.3999H51.6477V58.8457H52.2111V59.0739H51.6477V60.2061C51.6477 60.3266 51.6752 60.4167 51.7302 60.4764C51.7863 60.5361 51.8606 60.5659 51.9531 60.5659ZM53.3538 58.8106C53.5176 58.8106 53.6581 58.8469 53.7751 58.9194C53.8921 58.992 53.9816 59.0938 54.0437 59.2249C54.1057 59.3548 54.1367 59.5069 54.1367 59.6812V59.862H52.8079C52.8114 60.0879 52.8676 60.2599 52.9764 60.3781C53.0853 60.4963 53.2386 60.5554 53.4363 60.5554C53.558 60.5554 53.6657 60.5443 53.7593 60.522C53.8529 60.4998 53.95 60.467 54.0507 60.4237V60.68C53.9535 60.7233 53.857 60.7549 53.761 60.7748C53.6663 60.7947 53.5539 60.8046 53.424 60.8046C53.2391 60.8046 53.0776 60.7672 52.9396 60.6923C52.8026 60.6162 52.6962 60.5051 52.6201 60.3588C52.544 60.2125 52.506 60.0335 52.506 59.8217C52.506 59.6145 52.5405 59.4355 52.6096 59.2845C52.6798 59.1324 52.7781 59.0154 52.9045 58.9335C53.032 58.8516 53.1818 58.8106 53.3538 58.8106ZM53.3503 59.0493C53.1947 59.0493 53.0706 59.1002 52.9782 59.202C52.8857 59.3038 52.8307 59.446 52.8132 59.6286H53.8313C53.8301 59.5139 53.812 59.4133 53.7768 59.3267C53.7429 59.2389 53.6908 59.171 53.6206 59.123C53.5504 59.0739 53.4603 59.0493 53.3503 59.0493ZM55.8762 60.2429C55.8762 60.3658 55.8452 60.4694 55.7832 60.5536C55.7223 60.6367 55.6346 60.6993 55.5199 60.7414C55.4064 60.7836 55.2706 60.8046 55.1126 60.8046C54.9781 60.8046 54.8616 60.7941 54.7633 60.773C54.665 60.752 54.579 60.7221 54.5053 60.6835V60.415C54.5837 60.4536 54.6773 60.4887 54.7861 60.5203C54.895 60.5519 55.0061 60.5677 55.1197 60.5677C55.2858 60.5677 55.4064 60.5408 55.4813 60.4869C55.5561 60.4331 55.5936 60.36 55.5936 60.2675C55.5936 60.2149 55.5784 60.1686 55.548 60.1288C55.5187 60.0879 55.469 60.0487 55.3988 60.0112C55.3285 59.9726 55.2314 59.9305 55.1074 59.8849C54.9845 59.838 54.878 59.7918 54.7879 59.7462C54.699 59.6994 54.6299 59.6426 54.5808 59.5759C54.5328 59.5092 54.5088 59.4226 54.5088 59.3161C54.5088 59.1535 54.5743 59.0288 54.7054 58.9423C54.8376 58.8545 55.0108 58.8106 55.225 58.8106C55.3408 58.8106 55.4491 58.8223 55.5497 58.8457C55.6515 58.8679 55.7463 58.8984 55.8341 58.937L55.7358 59.1704C55.6562 59.1365 55.5714 59.1078 55.4813 59.0844C55.3911 59.061 55.2993 59.0493 55.2057 59.0493C55.0711 59.0493 54.9675 59.0716 54.895 59.116C54.8236 59.1605 54.7879 59.2213 54.7879 59.2986C54.7879 59.3583 54.8043 59.4074 54.8371 59.446C54.871 59.4846 54.9248 59.5209 54.9985 59.5549C55.0723 59.5888 55.1694 59.6286 55.2899 59.6742C55.4105 59.7187 55.5146 59.7649 55.6024 59.8129C55.6901 59.8597 55.7574 59.917 55.8042 59.9849C55.8522 60.0516 55.8762 60.1376 55.8762 60.2429ZM58.1827 58.8106C58.4226 58.8106 58.6139 58.8931 58.7567 59.0581C58.8994 59.2231 58.9708 59.4712 58.9708 59.8024C58.9708 60.0212 58.938 60.2049 58.8725 60.3535C58.807 60.5021 58.7145 60.6145 58.5952 60.6905C58.477 60.7666 58.3371 60.8046 58.1757 60.8046C58.0738 60.8046 57.9843 60.7912 57.9071 60.7643C57.8299 60.7374 57.7637 60.7011 57.7087 60.6554C57.6537 60.6098 57.6081 60.5601 57.5718 60.5062H57.5508C57.5543 60.5519 57.5584 60.6069 57.5631 60.6712C57.5689 60.7356 57.5718 60.7918 57.5718 60.8397V61.6296H57.2787V58.8457H57.5192L57.5578 59.1301H57.5718C57.6093 59.0716 57.6549 59.0183 57.7087 58.9703C57.7626 58.9212 57.8281 58.8826 57.9053 58.8545C57.9837 58.8252 58.0762 58.8106 58.1827 58.8106ZM58.1318 59.0563C57.9984 59.0563 57.8907 59.0821 57.8088 59.1336C57.7281 59.1851 57.669 59.2623 57.6315 59.3653C57.5941 59.4671 57.5742 59.5952 57.5718 59.7497V59.8059C57.5718 59.9685 57.5894 60.106 57.6245 60.2184C57.6608 60.3307 57.7199 60.4161 57.8018 60.4746C57.8849 60.5331 57.996 60.5624 58.1353 60.5624C58.2546 60.5624 58.3541 60.5302 58.4337 60.4659C58.5133 60.4015 58.5724 60.312 58.611 60.1973C58.6508 60.0814 58.6707 59.9486 58.6707 59.7988C58.6707 59.5718 58.6262 59.3916 58.5372 59.2582C58.4495 59.1236 58.3143 59.0563 58.1318 59.0563ZM60.1995 58.8141C60.4289 58.8141 60.5992 58.8656 60.7103 58.9686C60.8215 59.0716 60.8771 59.236 60.8771 59.4618V60.7695H60.6647L60.6085 60.4852H60.5945C60.5406 60.5554 60.4845 60.6145 60.426 60.6625C60.3675 60.7093 60.2996 60.745 60.2223 60.7695C60.1463 60.7929 60.0527 60.8046 59.9415 60.8046C59.8245 60.8046 59.7203 60.7842 59.6291 60.7432C59.5389 60.7022 59.4676 60.6402 59.4149 60.5571C59.3634 60.4741 59.3377 60.3687 59.3377 60.2412C59.3377 60.0493 59.4137 59.9018 59.5659 59.7988C59.718 59.6959 59.9497 59.6397 60.261 59.6303L60.5927 59.6163V59.4987C60.5927 59.3325 60.557 59.2161 60.4856 59.1494C60.4143 59.0827 60.3136 59.0493 60.1837 59.0493C60.0831 59.0493 59.9871 59.064 59.8959 59.0932C59.8046 59.1225 59.718 59.157 59.6361 59.1968L59.5466 58.9756C59.6331 58.9311 59.7326 58.8931 59.845 58.8615C59.9573 58.8299 60.0755 58.8141 60.1995 58.8141ZM60.5892 59.8217L60.2961 59.834C60.0562 59.8433 59.8871 59.8825 59.7888 59.9516C59.6905 60.0206 59.6413 60.1183 59.6413 60.2447C59.6413 60.3547 59.6747 60.436 59.7414 60.4887C59.8081 60.5413 59.8964 60.5677 60.0064 60.5677C60.1773 60.5677 60.3171 60.5203 60.426 60.4255C60.5348 60.3307 60.5892 60.1885 60.5892 59.9989V59.8217ZM62.3515 58.8106C62.3902 58.8106 62.4305 58.8129 62.4727 58.8176C62.5148 58.8211 62.5522 58.8264 62.585 58.8334L62.5481 59.1037C62.5165 59.0955 62.4814 59.0891 62.4428 59.0844C62.4042 59.0798 62.3679 59.0774 62.334 59.0774C62.2568 59.0774 62.1836 59.0932 62.1146 59.1248C62.0467 59.1552 61.987 59.1997 61.9355 59.2582C61.884 59.3155 61.8437 59.3852 61.8144 59.4671C61.7852 59.5478 61.7705 59.6379 61.7705 59.7374V60.7695H61.4774V58.8457H61.7196L61.7512 59.2003H61.7635C61.8033 59.1289 61.8513 59.064 61.9074 59.0054C61.9636 58.9458 62.0286 58.8984 62.1023 58.8633C62.1772 58.8282 62.2603 58.8106 62.3515 58.8106ZM64.6019 58.8141C64.8312 58.8141 65.0015 58.8656 65.1126 58.9686C65.2238 59.0716 65.2794 59.236 65.2794 59.4618V60.7695H65.067L65.0108 60.4852H64.9968C64.943 60.5554 64.8868 60.6145 64.8283 60.6625C64.7698 60.7093 64.7019 60.745 64.6247 60.7695C64.5486 60.7929 64.455 60.8046 64.3438 60.8046C64.2268 60.8046 64.1227 60.7842 64.0314 60.7432C63.9413 60.7022 63.8699 60.6402 63.8172 60.5571C63.7657 60.4741 63.74 60.3687 63.74 60.2412C63.74 60.0493 63.8161 59.9018 63.9682 59.7988C64.1203 59.6959 64.352 59.6397 64.6633 59.6303L64.995 59.6163V59.4987C64.995 59.3325 64.9593 59.2161 64.888 59.1494C64.8166 59.0827 64.7159 59.0493 64.5861 59.0493C64.4854 59.0493 64.3895 59.064 64.2982 59.0932C64.2069 59.1225 64.1203 59.157 64.0384 59.1968L63.9489 58.9756C64.0355 58.9311 64.1349 58.8931 64.2473 58.8615C64.3596 58.8299 64.4778 58.8141 64.6019 58.8141ZM64.9915 59.8217L64.6984 59.834C64.4585 59.8433 64.2894 59.8825 64.1911 59.9516C64.0928 60.0206 64.0437 60.1183 64.0437 60.2447C64.0437 60.3547 64.077 60.436 64.1437 60.4887C64.2104 60.5413 64.2988 60.5677 64.4088 60.5677C64.5796 60.5677 64.7195 60.5203 64.8283 60.4255C64.9371 60.3307 64.9915 60.1885 64.9915 59.9989V59.8217ZM66.7539 58.8106C66.7925 58.8106 66.8328 58.8129 66.875 58.8176C66.9171 58.8211 66.9546 58.8264 66.9873 58.8334L66.9505 59.1037C66.9189 59.0955 66.8838 59.0891 66.8451 59.0844C66.8065 59.0798 66.7702 59.0774 66.7363 59.0774C66.6591 59.0774 66.5859 59.0932 66.5169 59.1248C66.449 59.1552 66.3893 59.1997 66.3379 59.2582C66.2864 59.3155 66.246 59.3852 66.2167 59.4671C66.1875 59.5478 66.1729 59.6379 66.1729 59.7374V60.7695H65.8797V58.8457H66.1219L66.1535 59.2003H66.1658C66.2056 59.1289 66.2536 59.064 66.3098 59.0054C66.3659 58.9458 66.4309 58.8984 66.5046 58.8633C66.5795 58.8282 66.6626 58.8106 66.7539 58.8106ZM67.972 60.5659C68.02 60.5659 68.0692 60.5618 68.1195 60.5536C68.1698 60.5454 68.2108 60.5355 68.2424 60.5238V60.7502C68.2084 60.7654 68.161 60.7783 68.1002 60.7888C68.0405 60.7994 67.982 60.8046 67.9247 60.8046C67.8228 60.8046 67.7304 60.7871 67.6473 60.752C67.5642 60.7157 67.4975 60.6549 67.4472 60.5694C67.3981 60.484 67.3735 60.3658 67.3735 60.2149V59.0739H67.0997V58.9317L67.3752 58.8176L67.4911 58.3999H67.6666V58.8457H68.2301V59.0739H67.6666V60.2061C67.6666 60.3266 67.6941 60.4167 67.7491 60.4764C67.8053 60.5361 67.8796 60.5659 67.972 60.5659ZM68.9234 58.8457V60.7695H68.632V58.8457H68.9234ZM68.7812 58.126C68.8292 58.126 68.8702 58.1418 68.9041 58.1734C68.9392 58.2039 68.9568 58.2518 68.9568 58.3174C68.9568 58.3817 68.9392 58.4297 68.9041 58.4613C68.8702 58.4929 68.8292 58.5087 68.7812 58.5087C68.7309 58.5087 68.6888 58.4929 68.6549 58.4613C68.6221 58.4297 68.6057 58.3817 68.6057 58.3174C68.6057 58.2518 68.6221 58.2039 68.6549 58.1734C68.6888 58.1418 68.7309 58.126 68.7812 58.126ZM70.3119 60.8046C70.1387 60.8046 69.986 60.7689 69.8537 60.6976C69.7215 60.6262 69.6185 60.5174 69.5448 60.3711C69.4711 60.2248 69.4342 60.0405 69.4342 59.8182C69.4342 59.5853 69.4728 59.3951 69.5501 59.2477C69.6285 59.0991 69.7361 58.9891 69.873 58.9177C70.01 58.8463 70.1656 58.8106 70.34 58.8106C70.4359 58.8106 70.5284 58.8206 70.6173 58.8404C70.7074 58.8592 70.7811 58.8832 70.8385 58.9124L70.7507 59.1564C70.6922 59.133 70.6243 59.1119 70.5471 59.0932C70.471 59.0745 70.3996 59.0651 70.3329 59.0651C70.1995 59.0651 70.0884 59.0938 69.9994 59.1511C69.9117 59.2085 69.8455 59.2927 69.8011 59.4039C69.7578 59.5151 69.7361 59.652 69.7361 59.8146C69.7361 59.9703 69.7572 60.1031 69.7993 60.2131C69.8426 60.3231 69.9064 60.4074 69.9907 60.4659C70.0761 60.5232 70.1826 60.5519 70.3101 60.5519C70.4119 60.5519 70.5038 60.5413 70.5857 60.5203C70.6676 60.498 70.7419 60.4723 70.8086 60.443V60.7028C70.7443 60.7356 70.6723 60.7608 70.5927 60.7783C70.5143 60.7959 70.4207 60.8046 70.3119 60.8046ZM71.5581 60.7695H71.265V58.0383H71.5581V60.7695ZM72.915 58.8106C73.0788 58.8106 73.2193 58.8469 73.3363 58.9194C73.4533 58.992 73.5428 59.0938 73.6048 59.2249C73.6669 59.3548 73.6979 59.5069 73.6979 59.6812V59.862H72.3691C72.3726 60.0879 72.4288 60.2599 72.5376 60.3781C72.6464 60.4963 72.7997 60.5554 72.9975 60.5554C73.1192 60.5554 73.2269 60.5443 73.3205 60.522C73.4141 60.4998 73.5112 60.467 73.6119 60.4237V60.68C73.5147 60.7233 73.4182 60.7549 73.3222 60.7748C73.2274 60.7947 73.1151 60.8046 72.9852 60.8046C72.8003 60.8046 72.6388 60.7672 72.5007 60.6923C72.3638 60.6162 72.2573 60.5051 72.1813 60.3588C72.1052 60.2125 72.0672 60.0335 72.0672 59.8217C72.0672 59.6145 72.1017 59.4355 72.1707 59.2845C72.241 59.1324 72.3393 59.0154 72.4656 58.9335C72.5932 58.8516 72.743 58.8106 72.915 58.8106ZM72.9115 59.0493C72.7559 59.0493 72.6318 59.1002 72.5394 59.202C72.4469 59.3038 72.3919 59.446 72.3744 59.6286H73.3924C73.3913 59.5139 73.3731 59.4133 73.338 59.3267C73.3041 59.2389 73.252 59.171 73.1818 59.123C73.1116 59.0739 73.0215 59.0493 72.9115 59.0493Z" fill="#273D52"/>
<rect x="27.9997" y="52.1999" width="83.8805" height="14.1398" rx="1.07846" stroke="#E5ECED" stroke-width="0.239658"/>
<rect x="27.9997" y="69.4597" width="83.8805" height="14.1398" rx="1.07846" fill="white"/>
<g clip-path="url(#clip2_1682_17074)">
<path d="M37.7858 76.5297C37.7858 78.0862 36.5715 79.3446 35.0696 79.3446C33.5678 79.3446 32.3535 78.0862 32.3535 76.5297C32.3535 74.9733 33.5678 73.7148 35.0696 73.7148C36.5715 73.7148 37.7858 74.9733 37.7858 76.5297Z" fill="white"/>
<path d="M35.0692 79.8411V79.1787C36.4752 79.1787 37.6256 77.9865 37.6256 76.5294C37.6256 75.0723 36.4752 73.8801 35.0692 73.8801C34.4621 73.8801 33.8709 74.0954 33.4076 74.5093L32.9922 74.0126C33.5833 73.4993 34.3183 73.2178 35.0692 73.2178C36.8267 73.2178 38.2647 74.708 38.2647 76.5294C38.2647 78.3508 36.8267 79.8411 35.0692 79.8411Z" fill="#DCEDC8"/>
<path d="M35.0695 79.8411C33.312 79.8411 31.874 78.3508 31.874 76.5294C31.874 74.708 33.312 73.2178 35.0695 73.2178V73.8801C33.6635 73.8801 32.5131 75.0723 32.5131 76.5294C32.5131 77.9865 33.6635 79.1787 35.0695 79.1787C36.4755 79.1787 37.6258 77.9865 37.6258 76.5294C37.6258 75.9002 37.4181 75.2876 37.0187 74.8074L37.498 74.3768C37.9933 74.9895 38.2649 75.7512 38.2649 76.5294C38.2649 78.3508 36.827 79.8411 35.0695 79.8411Z" fill="#7CB342"/>
<path d="M34.5898 74.5427L35.868 73.5492L34.5898 72.5557V74.5427Z" fill="#7CB342"/>
<path d="M36.0282 75.0396L35.7406 74.8906L34.9258 76.4637L35.2134 76.6127L36.0282 75.0396Z" fill="black"/>
<path d="M36.0279 77.2419L35.7722 77.5234L34.9414 76.6623L35.213 76.3809L36.0279 77.2419Z" fill="black"/>
<path d="M35.3891 76.5294C35.3891 76.7115 35.2453 76.8606 35.0695 76.8606C34.8938 76.8606 34.75 76.7115 34.75 76.5294C34.75 76.3473 34.8938 76.1982 35.0695 76.1982C35.2453 76.1982 35.3891 76.3473 35.3891 76.5294Z" fill="black"/>
<path d="M35.2297 76.5298C35.2297 76.6292 35.1658 76.6954 35.0699 76.6954C34.9741 76.6954 34.9102 76.6292 34.9102 76.5298C34.9102 76.4305 34.9741 76.3643 35.0699 76.3643C35.1658 76.3643 35.2297 76.4305 35.2297 76.5298Z" fill="#8BC34A"/>
</g>
<path d="M46.4554 77.3465C46.4554 77.4986 46.4174 77.6285 46.3413 77.7362C46.2665 77.8426 46.1611 77.924 46.0254 77.9801C45.8896 78.0363 45.7299 78.0644 45.5462 78.0644C45.4491 78.0644 45.3572 78.0597 45.2706 78.0504C45.184 78.041 45.1044 78.0275 45.0319 78.01C44.9593 77.9924 44.8956 77.9708 44.8406 77.945V77.6589C44.9283 77.6952 45.0354 77.7291 45.1618 77.7607C45.2882 77.7912 45.4204 77.8064 45.5585 77.8064C45.6872 77.8064 45.796 77.7894 45.885 77.7555C45.9739 77.7204 46.0412 77.6706 46.0868 77.6063C46.1336 77.5407 46.157 77.4623 46.157 77.3711C46.157 77.2833 46.1377 77.2102 46.0991 77.1516C46.0605 77.092 45.9961 77.0381 45.906 76.9902C45.8171 76.941 45.6954 76.8889 45.5409 76.8339C45.4321 76.7953 45.3361 76.7532 45.2531 76.7075C45.17 76.6607 45.1003 76.6081 45.0442 76.5496C44.988 76.4911 44.9453 76.4232 44.916 76.346C44.888 76.2687 44.8739 76.1804 44.8739 76.0809C44.8739 75.944 44.9084 75.827 44.9775 75.7298C45.0477 75.6315 45.1442 75.5566 45.2671 75.5052C45.3911 75.4525 45.5333 75.4262 45.6936 75.4262C45.8306 75.4262 45.9569 75.439 46.0728 75.4648C46.1898 75.4905 46.2969 75.5251 46.394 75.5684L46.301 75.8246C46.2085 75.786 46.1102 75.7538 46.0061 75.7281C45.9031 75.7023 45.7966 75.6895 45.6866 75.6895C45.5766 75.6895 45.4836 75.7059 45.4075 75.7386C45.3326 75.7702 45.2753 75.8153 45.2355 75.8738C45.1957 75.9323 45.1758 76.0019 45.1758 76.0827C45.1758 76.1728 45.1945 76.2477 45.232 76.3073C45.2706 76.367 45.3315 76.4203 45.4145 76.4671C45.4988 76.5127 45.61 76.5607 45.7481 76.611C45.899 76.666 46.0271 76.7245 46.1325 76.7865C46.2378 76.8474 46.3179 76.9223 46.3729 77.0112C46.4279 77.099 46.4554 77.2107 46.4554 77.3465ZM47.6771 76.0704C47.841 76.0704 47.9814 76.1066 48.0984 76.1792C48.2154 76.2518 48.305 76.3536 48.367 76.4846C48.429 76.6145 48.46 76.7666 48.46 76.941V77.1218H47.1312C47.1347 77.3477 47.1909 77.5197 47.2997 77.6379C47.4086 77.7561 47.5619 77.8151 47.7596 77.8151C47.8813 77.8151 47.989 77.804 48.0826 77.7818C48.1762 77.7596 48.2734 77.7268 48.374 77.6835V77.9398C48.2769 77.9831 48.1803 78.0147 48.0844 78.0346C47.9896 78.0545 47.8772 78.0644 47.7474 78.0644C47.5625 78.0644 47.401 78.027 47.2629 77.9521C47.126 77.876 47.0195 77.7648 46.9434 77.6186C46.8674 77.4723 46.8293 77.2932 46.8293 77.0814C46.8293 76.8743 46.8638 76.6953 46.9329 76.5443C47.0031 76.3922 47.1014 76.2752 47.2278 76.1932C47.3553 76.1113 47.5051 76.0704 47.6771 76.0704ZM47.6736 76.3091C47.518 76.3091 47.394 76.36 47.3015 76.4618C47.2091 76.5636 47.1541 76.7058 47.1365 76.8883H48.1546C48.1534 76.7737 48.1353 76.673 48.1002 76.5864C48.0662 76.4987 48.0142 76.4308 47.9439 76.3828C47.8737 76.3337 47.7836 76.3091 47.6736 76.3091ZM50.1995 77.5027C50.1995 77.6256 50.1685 77.7291 50.1065 77.8134C50.0456 77.8965 49.9579 77.9591 49.8432 78.0012C49.7297 78.0433 49.5939 78.0644 49.436 78.0644C49.3014 78.0644 49.185 78.0539 49.0867 78.0328C48.9884 78.0117 48.9023 77.9819 48.8286 77.9433V77.6747C48.907 77.7133 49.0006 77.7484 49.1095 77.78C49.2183 77.8116 49.3295 77.8274 49.443 77.8274C49.6092 77.8274 49.7297 77.8005 49.8046 77.7467C49.8795 77.6929 49.9169 77.6197 49.9169 77.5273C49.9169 77.4746 49.9017 77.4284 49.8713 77.3886C49.842 77.3477 49.7923 77.3084 49.7221 77.271C49.6519 77.2324 49.5547 77.1903 49.4307 77.1446C49.3078 77.0978 49.2013 77.0516 49.1112 77.006C49.0223 76.9591 48.9533 76.9024 48.9041 76.8357C48.8561 76.769 48.8321 76.6824 48.8321 76.5759C48.8321 76.4132 48.8977 76.2886 49.0287 76.202C49.161 76.1143 49.3342 76.0704 49.5483 76.0704C49.6642 76.0704 49.7724 76.0821 49.873 76.1055C49.9748 76.1277 50.0696 76.1581 50.1574 76.1968L50.0591 76.4302C49.9795 76.3963 49.8947 76.3676 49.8046 76.3442C49.7145 76.3208 49.6226 76.3091 49.529 76.3091C49.3944 76.3091 49.2909 76.3313 49.2183 76.3758C49.1469 76.4203 49.1112 76.4811 49.1112 76.5583C49.1112 76.618 49.1276 76.6672 49.1604 76.7058C49.1943 76.7444 49.2481 76.7807 49.3219 76.8146C49.3956 76.8486 49.4927 76.8883 49.6132 76.934C49.7338 76.9785 49.8379 77.0247 49.9257 77.0727C50.0135 77.1195 50.0807 77.1768 50.1276 77.2447C50.1755 77.3114 50.1995 77.3974 50.1995 77.5027ZM51.9127 77.5027C51.9127 77.6256 51.8817 77.7291 51.8197 77.8134C51.7588 77.8965 51.6711 77.9591 51.5564 78.0012C51.4429 78.0433 51.3071 78.0644 51.1491 78.0644C51.0146 78.0644 50.8981 78.0539 50.7998 78.0328C50.7015 78.0117 50.6155 77.9819 50.5418 77.9433V77.6747C50.6202 77.7133 50.7138 77.7484 50.8227 77.78C50.9315 77.8116 51.0427 77.8274 51.1562 77.8274C51.3223 77.8274 51.4429 77.8005 51.5178 77.7467C51.5927 77.6929 51.6301 77.6197 51.6301 77.5273C51.6301 77.4746 51.6149 77.4284 51.5845 77.3886C51.5552 77.3477 51.5055 77.3084 51.4353 77.271C51.365 77.2324 51.2679 77.1903 51.1439 77.1446C51.021 77.0978 50.9145 77.0516 50.8244 77.006C50.7355 76.9591 50.6664 76.9024 50.6173 76.8357C50.5693 76.769 50.5453 76.6824 50.5453 76.5759C50.5453 76.4132 50.6108 76.2886 50.7419 76.202C50.8741 76.1143 51.0473 76.0704 51.2615 76.0704C51.3773 76.0704 51.4856 76.0821 51.5862 76.1055C51.688 76.1277 51.7828 76.1581 51.8706 76.1968L51.7723 76.4302C51.6927 76.3963 51.6079 76.3676 51.5178 76.3442C51.4277 76.3208 51.3358 76.3091 51.2422 76.3091C51.1076 76.3091 51.004 76.3313 50.9315 76.3758C50.8601 76.4203 50.8244 76.4811 50.8244 76.5583C50.8244 76.618 50.8408 76.6672 50.8736 76.7058C50.9075 76.7444 50.9613 76.7807 51.035 76.8146C51.1088 76.8486 51.2059 76.8883 51.3264 76.934C51.447 76.9785 51.5511 77.0247 51.6389 77.0727C51.7266 77.1195 51.7939 77.1768 51.8407 77.2447C51.8887 77.3114 51.9127 77.3974 51.9127 77.5027ZM52.6728 76.1055V78.0293H52.3814V76.1055H52.6728ZM52.5306 75.3858C52.5786 75.3858 52.6195 75.4016 52.6534 75.4332C52.6886 75.4636 52.7061 75.5116 52.7061 75.5771C52.7061 75.6415 52.6886 75.6895 52.6534 75.7211C52.6195 75.7527 52.5786 75.7685 52.5306 75.7685C52.4803 75.7685 52.4381 75.7527 52.4042 75.7211C52.3714 75.6895 52.355 75.6415 52.355 75.5771C52.355 75.5116 52.3714 75.4636 52.4042 75.4332C52.4381 75.4016 52.4803 75.3858 52.5306 75.3858ZM54.9494 77.0639C54.9494 77.2219 54.9289 77.3629 54.888 77.4869C54.847 77.6109 54.7879 77.7157 54.7107 77.8011C54.6334 77.8865 54.5398 77.9521 54.4298 77.9977C54.321 78.0422 54.1975 78.0644 54.0595 78.0644C53.9307 78.0644 53.8125 78.0422 53.7049 77.9977C53.5984 77.9521 53.5059 77.8865 53.4275 77.8011C53.3503 77.7157 53.29 77.6109 53.2467 77.4869C53.2046 77.3629 53.1836 77.2219 53.1836 77.0639C53.1836 76.8532 53.2192 76.6742 53.2906 76.5268C53.362 76.3781 53.4638 76.2652 53.596 76.188C53.7295 76.1096 53.888 76.0704 54.0717 76.0704C54.2473 76.0704 54.4006 76.1096 54.5316 76.188C54.6639 76.2664 54.7663 76.3799 54.8388 76.5285C54.9125 76.676 54.9494 76.8544 54.9494 77.0639ZM53.4855 77.0639C53.4855 77.2183 53.5059 77.3523 53.5469 77.4658C53.5879 77.5794 53.651 77.6671 53.7365 77.7291C53.8219 77.7912 53.9319 77.8222 54.0665 77.8222C54.1999 77.8222 54.3093 77.7912 54.3947 77.7291C54.4813 77.6671 54.5451 77.5794 54.586 77.4658C54.627 77.3523 54.6475 77.2183 54.6475 77.0639C54.6475 76.9106 54.627 76.7783 54.586 76.6672C54.5451 76.5548 54.4819 76.4682 54.3965 76.4074C54.311 76.3465 54.2005 76.3161 54.0647 76.3161C53.8646 76.3161 53.7178 76.3822 53.6241 76.5145C53.5317 76.6467 53.4855 76.8298 53.4855 77.0639ZM56.3642 76.0704C56.5924 76.0704 56.765 76.1265 56.882 76.2389C56.999 76.35 57.0575 76.5291 57.0575 76.776V78.0293H56.7697V76.7953C56.7697 76.635 56.7328 76.515 56.6591 76.4355C56.5865 76.3559 56.4748 76.3161 56.3238 76.3161C56.1108 76.3161 55.961 76.3764 55.8744 76.4969C55.7878 76.6174 55.7445 76.7924 55.7445 77.0217V78.0293H55.4532V76.1055H55.6884L55.7323 76.3828H55.7481C55.789 76.3149 55.8411 76.2582 55.9043 76.2125C55.9675 76.1657 56.0383 76.1306 56.1167 76.1072C56.1951 76.0827 56.2776 76.0704 56.3642 76.0704ZM58.9024 77.5027C58.9024 77.6256 58.8713 77.7291 58.8093 77.8134C58.7485 77.8965 58.6607 77.9591 58.546 78.0012C58.4325 78.0433 58.2968 78.0644 58.1388 78.0644C58.0042 78.0644 57.8878 78.0539 57.7895 78.0328C57.6912 78.0117 57.6052 77.9819 57.5315 77.9433V77.6747C57.6099 77.7133 57.7035 77.7484 57.8123 77.78C57.9211 77.8116 58.0323 77.8274 58.1458 77.8274C58.312 77.8274 58.4325 77.8005 58.5074 77.7467C58.5823 77.6929 58.6197 77.6197 58.6197 77.5273C58.6197 77.4746 58.6045 77.4284 58.5741 77.3886C58.5449 77.3477 58.4951 77.3084 58.4249 77.271C58.3547 77.2324 58.2576 77.1903 58.1335 77.1446C58.0107 77.0978 57.9042 77.0516 57.8141 77.006C57.7251 76.9591 57.6561 76.9024 57.6069 76.8357C57.559 76.769 57.535 76.6824 57.535 76.5759C57.535 76.4132 57.6005 76.2886 57.7316 76.202C57.8638 76.1143 58.037 76.0704 58.2511 76.0704C58.367 76.0704 58.4752 76.0821 58.5759 76.1055C58.6777 76.1277 58.7725 76.1581 58.8602 76.1968L58.7619 76.4302C58.6824 76.3963 58.5975 76.3676 58.5074 76.3442C58.4173 76.3208 58.3254 76.3091 58.2318 76.3091C58.0973 76.3091 57.9937 76.3313 57.9211 76.3758C57.8498 76.4203 57.8141 76.4811 57.8141 76.5583C57.8141 76.618 57.8304 76.6672 57.8632 76.7058C57.8971 76.7444 57.951 76.7807 58.0247 76.8146C58.0984 76.8486 58.1955 76.8883 58.3161 76.934C58.4366 76.9785 58.5408 77.0247 58.6285 77.0727C58.7163 77.1195 58.7836 77.1768 58.8304 77.2447C58.8784 77.3114 58.9024 77.3974 58.9024 77.5027Z" fill="#273D52"/>
<rect x="27.9997" y="69.4597" width="83.8805" height="14.1398" rx="1.07846" stroke="#E5ECED" stroke-width="0.239658"/>
<rect x="27.9997" y="86.7185" width="83.8805" height="14.1398" rx="1.07846" fill="white"/>
<path d="M32.1934 92.5466C32.1934 92.2722 32.408 92.0498 32.6727 92.0498H36.9865C37.2512 92.0498 37.4658 92.2722 37.4658 92.5466V95.527C37.4658 95.8014 37.2512 96.0238 36.9865 96.0238H32.6727C32.408 96.0238 32.1934 95.8014 32.1934 95.527V92.5466Z" fill="#15AABF"/>
<path d="M34.8301 94.0371C34.8301 93.6256 35.152 93.292 35.5491 93.292H37.706C37.8383 93.292 37.9456 93.4032 37.9456 93.5404V94.5339C37.9456 94.671 37.8383 94.7822 37.706 94.7822H35.5491C35.152 94.7822 34.8301 94.4486 34.8301 94.0371Z" fill="#0C8599"/>
<ellipse cx="35.5492" cy="94.0365" rx="0.239658" ry="0.248373" fill="#FED330"/>
<path d="M36.9865 92.0499H34.5899L36.4411 91.3784C36.5566 91.3365 36.684 91.3915 36.7366 91.506L36.9865 92.0499Z" fill="#58D067"/>
<path d="M36.2675 92.0499H33.3916L35.6752 91.3596C35.7816 91.3274 35.8954 91.3751 35.9504 91.4748L36.2675 92.0499Z" fill="#97E1A0"/>
<path d="M46.7995 92.7218L45.8779 95.2881H45.5778L44.6562 92.7218H44.9687L45.569 94.4122C45.5936 94.4801 45.6152 94.545 45.634 94.607C45.6539 94.669 45.6714 94.7287 45.6866 94.7861C45.7018 94.8434 45.7153 94.899 45.727 94.9528C45.7387 94.899 45.7521 94.8434 45.7674 94.7861C45.7826 94.7276 45.8001 94.6673 45.82 94.6053C45.8399 94.5421 45.8621 94.476 45.8867 94.4069L46.4835 92.7218H46.7995ZM47.8492 93.3292C48.013 93.3292 48.1534 93.3654 48.2704 93.438C48.3875 93.5105 48.477 93.6123 48.539 93.7434C48.601 93.8733 48.632 94.0254 48.632 94.1998V94.3806H47.3033C47.3068 94.6064 47.3629 94.7785 47.4718 94.8967C47.5806 95.0148 47.7339 95.0739 47.9317 95.0739C48.0534 95.0739 48.161 95.0628 48.2546 95.0406C48.3483 95.0184 48.4454 94.9856 48.546 94.9423V95.1986C48.4489 95.2419 48.3524 95.2735 48.2564 95.2934C48.1616 95.3132 48.0493 95.3232 47.9194 95.3232C47.7345 95.3232 47.573 95.2857 47.4349 95.2109C47.298 95.1348 47.1915 95.0236 47.1154 94.8773C47.0394 94.7311 47.0013 94.552 47.0013 94.3402C47.0013 94.1331 47.0359 93.954 47.1049 93.8031C47.1751 93.651 47.2734 93.5339 47.3998 93.452C47.5274 93.3701 47.6771 93.3292 47.8492 93.3292ZM47.8457 93.5679C47.69 93.5679 47.566 93.6188 47.4735 93.7206C47.3811 93.8224 47.3261 93.9646 47.3085 94.1471H48.3266C48.3254 94.0325 48.3073 93.9318 48.2722 93.8452C48.2383 93.7575 48.1862 93.6896 48.116 93.6416C48.0458 93.5925 47.9556 93.5679 47.8457 93.5679ZM50.038 93.3292C50.2662 93.3292 50.4388 93.3853 50.5559 93.4977C50.6729 93.6088 50.7314 93.7879 50.7314 94.0348V95.2881H50.4435V94.0541C50.4435 93.8938 50.4066 93.7738 50.3329 93.6943C50.2604 93.6147 50.1486 93.5749 49.9977 93.5749C49.7847 93.5749 49.6349 93.6352 49.5483 93.7557C49.4617 93.8762 49.4184 94.0512 49.4184 94.2805V95.2881H49.127V93.3643H49.3622L49.4061 93.6416H49.4219C49.4629 93.5737 49.515 93.517 49.5781 93.4713C49.6413 93.4245 49.7121 93.3894 49.7905 93.366C49.8689 93.3414 49.9514 93.3292 50.038 93.3292ZM51.9531 95.0845C52.0011 95.0845 52.0502 95.0804 52.1005 95.0722C52.1508 95.064 52.1918 95.054 52.2234 95.0423V95.2688C52.1895 95.284 52.1421 95.2969 52.0812 95.3074C52.0215 95.3179 51.963 95.3232 51.9057 95.3232C51.8039 95.3232 51.7114 95.3056 51.6283 95.2705C51.5453 95.2343 51.4786 95.1734 51.4282 95.088C51.3791 95.0026 51.3545 94.8844 51.3545 94.7334V93.5925H51.0807V93.4503L51.3563 93.3362L51.4721 92.9184H51.6477V93.3643H52.2111V93.5925H51.6477V94.7246C51.6477 94.8452 51.6752 94.9353 51.7302 94.9949C51.7863 95.0546 51.8606 95.0845 51.9531 95.0845ZM53.3538 93.3292C53.5176 93.3292 53.6581 93.3654 53.7751 93.438C53.8921 93.5105 53.9816 93.6123 54.0437 93.7434C54.1057 93.8733 54.1367 94.0254 54.1367 94.1998V94.3806H52.8079C52.8114 94.6064 52.8676 94.7785 52.9764 94.8967C53.0853 95.0148 53.2386 95.0739 53.4363 95.0739C53.558 95.0739 53.6657 95.0628 53.7593 95.0406C53.8529 95.0184 53.95 94.9856 54.0507 94.9423V95.1986C53.9535 95.2419 53.857 95.2735 53.761 95.2934C53.6663 95.3132 53.5539 95.3232 53.424 95.3232C53.2391 95.3232 53.0776 95.2857 52.9396 95.2109C52.8026 95.1348 52.6962 95.0236 52.6201 94.8773C52.544 94.7311 52.506 94.552 52.506 94.3402C52.506 94.1331 52.5405 93.954 52.6096 93.8031C52.6798 93.651 52.7781 93.5339 52.9045 93.452C53.032 93.3701 53.1818 93.3292 53.3538 93.3292ZM53.3503 93.5679C53.1947 93.5679 53.0706 93.6188 52.9782 93.7206C52.8857 93.8224 52.8307 93.9646 52.8132 94.1471H53.8313C53.8301 94.0325 53.812 93.9318 53.7768 93.8452C53.7429 93.7575 53.6908 93.6896 53.6206 93.6416C53.5504 93.5925 53.4603 93.5679 53.3503 93.5679ZM55.8762 94.7615C55.8762 94.8844 55.8452 94.9879 55.7832 95.0722C55.7223 95.1553 55.6346 95.2179 55.5199 95.26C55.4064 95.3021 55.2706 95.3232 55.1126 95.3232C54.9781 95.3232 54.8616 95.3127 54.7633 95.2916C54.665 95.2705 54.579 95.2407 54.5053 95.2021V94.9335C54.5837 94.9721 54.6773 95.0072 54.7861 95.0388C54.895 95.0704 55.0061 95.0862 55.1197 95.0862C55.2858 95.0862 55.4064 95.0593 55.4813 95.0055C55.5561 94.9517 55.5936 94.8785 55.5936 94.7861C55.5936 94.7334 55.5784 94.6872 55.548 94.6474C55.5187 94.6064 55.469 94.5672 55.3988 94.5298C55.3285 94.4912 55.2314 94.449 55.1074 94.4034C54.9845 94.3566 54.878 94.3104 54.7879 94.2647C54.699 94.2179 54.6299 94.1612 54.5808 94.0945C54.5328 94.0278 54.5088 93.9412 54.5088 93.8347C54.5088 93.672 54.5743 93.5474 54.7054 93.4608C54.8376 93.373 55.0108 93.3292 55.225 93.3292C55.3408 93.3292 55.4491 93.3409 55.5497 93.3643C55.6515 93.3865 55.7463 93.4169 55.8341 93.4555L55.7358 93.689C55.6562 93.6551 55.5714 93.6264 55.4813 93.603C55.3911 93.5796 55.2993 93.5679 55.2057 93.5679C55.0711 93.5679 54.9675 93.5901 54.895 93.6346C54.8236 93.6791 54.7879 93.7399 54.7879 93.8171C54.7879 93.8768 54.8043 93.926 54.8371 93.9646C54.871 94.0032 54.9248 94.0395 54.9985 94.0734C55.0723 94.1073 55.1694 94.1471 55.2899 94.1928C55.4105 94.2372 55.5146 94.2835 55.6024 94.3314C55.6901 94.3782 55.7574 94.4356 55.8042 94.5035C55.8522 94.5702 55.8762 94.6562 55.8762 94.7615ZM58.1827 93.3292C58.4226 93.3292 58.6139 93.4117 58.7567 93.5767C58.8994 93.7417 58.9708 93.9897 58.9708 94.3209C58.9708 94.5397 58.938 94.7235 58.8725 94.8721C58.807 95.0207 58.7145 95.133 58.5952 95.2091C58.477 95.2852 58.3371 95.3232 58.1757 95.3232C58.0738 95.3232 57.9843 95.3097 57.9071 95.2828C57.8299 95.2559 57.7637 95.2196 57.7087 95.174C57.6537 95.1284 57.6081 95.0786 57.5718 95.0248H57.5508C57.5543 95.0704 57.5584 95.1254 57.5631 95.1898C57.5689 95.2541 57.5718 95.3103 57.5718 95.3583V96.1482H57.2787V93.3643H57.5192L57.5578 93.6486H57.5718C57.6093 93.5901 57.6549 93.5369 57.7087 93.4889C57.7626 93.4397 57.8281 93.4011 57.9053 93.373C57.9837 93.3438 58.0762 93.3292 58.1827 93.3292ZM58.1318 93.5749C57.9984 93.5749 57.8907 93.6006 57.8088 93.6521C57.7281 93.7036 57.669 93.7809 57.6315 93.8838C57.5941 93.9856 57.5742 94.1138 57.5718 94.2683V94.3244C57.5718 94.4871 57.5894 94.6246 57.6245 94.7369C57.6608 94.8493 57.7199 94.9347 57.8018 94.9932C57.8849 95.0517 57.996 95.081 58.1353 95.081C58.2546 95.081 58.3541 95.0488 58.4337 94.9844C58.5133 94.9201 58.5724 94.8305 58.611 94.7159C58.6508 94.6 58.6707 94.4672 58.6707 94.3174C58.6707 94.0904 58.6262 93.9102 58.5372 93.7768C58.4495 93.6422 58.3143 93.5749 58.1318 93.5749ZM60.1995 93.3327C60.4289 93.3327 60.5992 93.3842 60.7103 93.4871C60.8215 93.5901 60.8771 93.7545 60.8771 93.9804V95.2881H60.6647L60.6085 95.0037H60.5945C60.5406 95.0739 60.4845 95.133 60.426 95.181C60.3675 95.2278 60.2996 95.2635 60.2223 95.2881C60.1463 95.3115 60.0527 95.3232 59.9415 95.3232C59.8245 95.3232 59.7203 95.3027 59.6291 95.2618C59.5389 95.2208 59.4676 95.1588 59.4149 95.0757C59.3634 94.9926 59.3377 94.8873 59.3377 94.7597C59.3377 94.5678 59.4137 94.4204 59.5659 94.3174C59.718 94.2144 59.9497 94.1583 60.261 94.1489L60.5927 94.1348V94.0172C60.5927 93.8511 60.557 93.7346 60.4856 93.6679C60.4143 93.6012 60.3136 93.5679 60.1837 93.5679C60.0831 93.5679 59.9871 93.5825 59.8959 93.6118C59.8046 93.641 59.718 93.6755 59.6361 93.7153L59.5466 93.4942C59.6331 93.4497 59.7326 93.4117 59.845 93.3801C59.9573 93.3485 60.0755 93.3327 60.1995 93.3327ZM60.5892 94.3402L60.2961 94.3525C60.0562 94.3619 59.8871 94.4011 59.7888 94.4701C59.6905 94.5392 59.6413 94.6369 59.6413 94.7632C59.6413 94.8732 59.6747 94.9546 59.7414 95.0072C59.8081 95.0599 59.8964 95.0862 60.0064 95.0862C60.1773 95.0862 60.3171 95.0388 60.426 94.944C60.5348 94.8493 60.5892 94.7071 60.5892 94.5175V94.3402ZM62.3515 93.3292C62.3902 93.3292 62.4305 93.3315 62.4727 93.3362C62.5148 93.3397 62.5522 93.345 62.585 93.352L62.5481 93.6223C62.5165 93.6141 62.4814 93.6077 62.4428 93.603C62.4042 93.5983 62.3679 93.596 62.334 93.596C62.2568 93.596 62.1836 93.6118 62.1146 93.6434C62.0467 93.6738 61.987 93.7183 61.9355 93.7768C61.884 93.8341 61.8437 93.9037 61.8144 93.9856C61.7852 94.0664 61.7705 94.1565 61.7705 94.256V95.2881H61.4774V93.3643H61.7196L61.7512 93.7188H61.7635C61.8033 93.6475 61.8513 93.5825 61.9074 93.524C61.9636 93.4643 62.0286 93.4169 62.1023 93.3818C62.1772 93.3467 62.2603 93.3292 62.3515 93.3292ZM65.971 93.3292C66.1828 93.3292 66.3425 93.3847 66.4502 93.4959C66.5579 93.6059 66.6117 93.7832 66.6117 94.0278V95.2881H66.3238V94.0418C66.3238 93.8862 66.2899 93.7697 66.222 93.6925C66.1553 93.6141 66.0558 93.5749 65.9236 93.5749C65.7375 93.5749 65.6024 93.6287 65.5181 93.7364C65.4339 93.8441 65.3917 94.0026 65.3917 94.2121V95.2881H65.1021V94.0418C65.1021 93.9377 65.0869 93.8511 65.0565 93.782C65.0272 93.713 64.9828 93.6615 64.9231 93.6276C64.8646 93.5925 64.7903 93.5749 64.7001 93.5749C64.5726 93.5749 64.4702 93.6012 64.393 93.6539C64.3157 93.7066 64.2596 93.785 64.2245 93.8891C64.1905 93.9921 64.1736 94.119 64.1736 94.27V95.2881H63.8822V93.3643H64.1174L64.1613 93.6363H64.1771C64.2157 93.5696 64.2642 93.5135 64.3228 93.4678C64.3813 93.4222 64.4468 93.3877 64.5194 93.3643C64.5919 93.3409 64.6691 93.3292 64.7511 93.3292C64.8973 93.3292 65.0196 93.3567 65.1179 93.4117C65.2174 93.4655 65.2893 93.548 65.3338 93.6592H65.3496C65.4128 93.548 65.4994 93.4655 65.6094 93.4117C65.7194 93.3567 65.8399 93.3292 65.971 93.3292ZM68.869 94.3227C68.869 94.4806 68.8485 94.6217 68.8076 94.7457C68.7666 94.8697 68.7075 94.9745 68.6303 95.0599C68.5531 95.1453 68.4594 95.2109 68.3494 95.2565C68.2406 95.301 68.1172 95.3232 67.9791 95.3232C67.8503 95.3232 67.7322 95.301 67.6245 95.2565C67.518 95.2109 67.4256 95.1453 67.3472 95.0599C67.2699 94.9745 67.2097 94.8697 67.1664 94.7457C67.1242 94.6217 67.1032 94.4806 67.1032 94.3227C67.1032 94.112 67.1389 93.933 67.2102 93.7855C67.2816 93.6369 67.3834 93.524 67.5157 93.4468C67.6491 93.3684 67.8076 93.3292 67.9914 93.3292C68.1669 93.3292 68.3202 93.3684 68.4512 93.4468C68.5835 93.5252 68.6859 93.6387 68.7584 93.7873C68.8321 93.9347 68.869 94.1132 68.869 94.3227ZM67.4051 94.3227C67.4051 94.4771 67.4256 94.6111 67.4665 94.7246C67.5075 94.8381 67.5707 94.9259 67.6561 94.9879C67.7415 95.0499 67.8515 95.081 67.9861 95.081C68.1195 95.081 68.2289 95.0499 68.3143 94.9879C68.4009 94.9259 68.4647 94.8381 68.5057 94.7246C68.5466 94.6111 68.5671 94.4771 68.5671 94.3227C68.5671 94.1694 68.5466 94.0371 68.5057 93.926C68.4647 93.8136 68.4015 93.727 68.3161 93.6662C68.2307 93.6053 68.1201 93.5749 67.9843 93.5749C67.7842 93.5749 67.6374 93.641 67.5437 93.7733C67.4513 93.9055 67.4051 94.0886 67.4051 94.3227ZM69.0691 93.3643H69.3816L69.8063 94.4806C69.8309 94.5462 69.8537 94.6094 69.8748 94.6702C69.8959 94.7299 69.9146 94.7872 69.931 94.8422C69.9474 94.8972 69.9602 94.9505 69.9696 95.002H69.9819C69.9983 94.9435 70.0217 94.8668 70.0521 94.772C70.0825 94.6761 70.1153 94.5784 70.1504 94.4789L70.5524 93.3643H70.8666L70.0293 95.5707C69.9848 95.6889 69.9327 95.7919 69.873 95.8796C69.8145 95.9674 69.7432 96.0347 69.6589 96.0815C69.5746 96.1295 69.4728 96.1535 69.3535 96.1535C69.2985 96.1535 69.2499 96.1499 69.2078 96.1429C69.1657 96.1371 69.1294 96.1301 69.099 96.1219V95.8884C69.1247 95.8943 69.1557 95.8995 69.192 95.9042C69.2294 95.9089 69.2681 95.9112 69.3078 95.9112C69.3804 95.9112 69.443 95.8972 69.4957 95.8691C69.5495 95.8422 69.5957 95.8024 69.6343 95.7497C69.6729 95.6971 69.7063 95.6345 69.7344 95.5619L69.8397 95.2916L69.0691 93.3643ZM71.9145 93.3292C72.0783 93.3292 72.2187 93.3654 72.3357 93.438C72.4528 93.5105 72.5423 93.6123 72.6043 93.7434C72.6663 93.8733 72.6973 94.0254 72.6973 94.1998V94.3806H71.3686C71.3721 94.6064 71.4283 94.7785 71.5371 94.8967C71.6459 95.0148 71.7992 95.0739 71.997 95.0739C72.1187 95.0739 72.2263 95.0628 72.32 95.0406C72.4136 95.0184 72.5107 94.9856 72.6113 94.9423V95.1986C72.5142 95.2419 72.4177 95.2735 72.3217 95.2934C72.2269 95.3132 72.1146 95.3232 71.9847 95.3232C71.7998 95.3232 71.6383 95.2857 71.5002 95.2109C71.3633 95.1348 71.2568 95.0236 71.1808 94.8773C71.1047 94.7311 71.0667 94.552 71.0667 94.3402C71.0667 94.1331 71.1012 93.954 71.1702 93.8031C71.2404 93.651 71.3387 93.5339 71.4651 93.452C71.5927 93.3701 71.7425 93.3292 71.9145 93.3292ZM71.911 93.5679C71.7553 93.5679 71.6313 93.6188 71.5388 93.7206C71.4464 93.8224 71.3914 93.9646 71.3738 94.1471H72.3919C72.3907 94.0325 72.3726 93.9318 72.3375 93.8452C72.3036 93.7575 72.2515 93.6896 72.1813 93.6416C72.1111 93.5925 72.021 93.5679 71.911 93.5679ZM74.1033 93.3292C74.3315 93.3292 74.5041 93.3853 74.6212 93.4977C74.7382 93.6088 74.7967 93.7879 74.7967 94.0348V95.2881H74.5088V94.0541C74.5088 93.8938 74.472 93.7738 74.3982 93.6943C74.3257 93.6147 74.2139 93.5749 74.063 93.5749C73.85 93.5749 73.7002 93.6352 73.6136 93.7557C73.527 93.8762 73.4837 94.0512 73.4837 94.2805V95.2881H73.1923V93.3643H73.4276L73.4714 93.6416H73.4872C73.5282 93.5737 73.5803 93.517 73.6435 93.4713C73.7066 93.4245 73.7774 93.3894 73.8558 93.366C73.9343 93.3414 74.0168 93.3292 74.1033 93.3292ZM77.0154 95.3232C76.772 95.3232 76.5789 95.2401 76.4362 95.0739C76.2946 94.9078 76.2238 94.6609 76.2238 94.3332C76.2238 94.002 76.2963 93.7522 76.4414 93.5837C76.5865 93.414 76.7796 93.3292 77.0207 93.3292C77.1225 93.3292 77.2114 93.3426 77.2875 93.3695C77.3635 93.3964 77.4291 93.4327 77.4841 93.4784C77.5391 93.5228 77.5853 93.5737 77.6227 93.6311H77.6438C77.6391 93.5948 77.6344 93.5451 77.6298 93.4819C77.6251 93.4187 77.6227 93.3672 77.6227 93.3274V92.5568H77.9141V95.2881H77.6789L77.635 95.0143H77.6227C77.5865 95.0716 77.5402 95.1237 77.4841 95.1705C77.4291 95.2173 77.363 95.2547 77.2857 95.2828C77.2097 95.3097 77.1196 95.3232 77.0154 95.3232ZM77.061 95.081C77.267 95.081 77.4127 95.0224 77.4981 94.9054C77.5835 94.7884 77.6263 94.6146 77.6263 94.3841V94.3314C77.6263 94.0869 77.5853 93.899 77.5034 93.768C77.4226 93.6369 77.2752 93.5714 77.061 93.5714C76.882 93.5714 76.748 93.6404 76.6591 93.7785C76.5701 93.9154 76.5257 94.1027 76.5257 94.3402C76.5257 94.5766 76.5696 94.7592 76.6573 94.8879C76.7463 95.0166 76.8808 95.081 77.061 95.081ZM79.2727 93.3292C79.4366 93.3292 79.577 93.3654 79.694 93.438C79.811 93.5105 79.9006 93.6123 79.9626 93.7434C80.0246 93.8733 80.0556 94.0254 80.0556 94.1998V94.3806H78.7268C78.7303 94.6064 78.7865 94.7785 78.8953 94.8967C79.0042 95.0148 79.1575 95.0739 79.3552 95.0739C79.4769 95.0739 79.5846 95.0628 79.6782 95.0406C79.7718 95.0184 79.869 94.9856 79.9696 94.9423V95.1986C79.8725 95.2419 79.7759 95.2735 79.68 95.2934C79.5852 95.3132 79.4728 95.3232 79.343 95.3232C79.1581 95.3232 78.9966 95.2857 78.8585 95.2109C78.7216 95.1348 78.6151 95.0236 78.539 94.8773C78.463 94.7311 78.4249 94.552 78.4249 94.3402C78.4249 94.1331 78.4594 93.954 78.5285 93.8031C78.5987 93.651 78.697 93.5339 78.8234 93.452C78.9509 93.3701 79.1007 93.3292 79.2727 93.3292ZM79.2692 93.5679C79.1136 93.5679 78.9895 93.6188 78.8971 93.7206C78.8047 93.8224 78.7497 93.9646 78.7321 94.1471H79.7502C79.749 94.0325 79.7309 93.9318 79.6958 93.8452C79.6618 93.7575 79.6098 93.6896 79.5395 93.6416C79.4693 93.5925 79.3792 93.5679 79.2692 93.5679ZM82.3884 93.3292C82.6283 93.3292 82.8196 93.4117 82.9624 93.5767C83.1052 93.7417 83.1765 93.9897 83.1765 94.3209C83.1765 94.5397 83.1438 94.7235 83.0783 94.8721C83.0127 95.0207 82.9203 95.133 82.8009 95.2091C82.6827 95.2852 82.5429 95.3232 82.3814 95.3232C82.2796 95.3232 82.1901 95.3097 82.1128 95.2828C82.0356 95.2559 81.9695 95.2196 81.9145 95.174C81.8595 95.1284 81.8138 95.0786 81.7776 95.0248H81.7565C81.76 95.0704 81.7641 95.1254 81.7688 95.1898C81.7746 95.2541 81.7776 95.3103 81.7776 95.3583V96.1482H81.4844V93.3643H81.7249L81.7635 93.6486H81.7776C81.815 93.5901 81.8607 93.5369 81.9145 93.4889C81.9683 93.4397 82.0338 93.4011 82.1111 93.373C82.1895 93.3438 82.2819 93.3292 82.3884 93.3292ZM82.3375 93.5749C82.2041 93.5749 82.0964 93.6006 82.0145 93.6521C81.9338 93.7036 81.8747 93.7809 81.8372 93.8838C81.7998 93.9856 81.7799 94.1138 81.7776 94.2683V94.3244C81.7776 94.4871 81.7951 94.6246 81.8302 94.7369C81.8665 94.8493 81.9256 94.9347 82.0075 94.9932C82.0906 95.0517 82.2018 95.081 82.341 95.081C82.4604 95.081 82.5598 95.0488 82.6394 94.9844C82.719 94.9201 82.7781 94.8305 82.8167 94.7159C82.8565 94.6 82.8764 94.4672 82.8764 94.3174C82.8764 94.0904 82.8319 93.9102 82.743 93.7768C82.6552 93.6422 82.5201 93.5749 82.3375 93.5749ZM84.4053 93.3327C84.6346 93.3327 84.8049 93.3842 84.9161 93.4871C85.0272 93.5901 85.0828 93.7545 85.0828 93.9804V95.2881H84.8704L84.8143 95.0037H84.8002C84.7464 95.0739 84.6902 95.133 84.6317 95.181C84.5732 95.2278 84.5053 95.2635 84.4281 95.2881C84.352 95.3115 84.2584 95.3232 84.1472 95.3232C84.0302 95.3232 83.9261 95.3027 83.8348 95.2618C83.7447 95.2208 83.6733 95.1588 83.6206 95.0757C83.5692 94.9926 83.5434 94.8873 83.5434 94.7597C83.5434 94.5678 83.6195 94.4204 83.7716 94.3174C83.9237 94.2144 84.1554 94.1583 84.4667 94.1489L84.7985 94.1348V94.0172C84.7985 93.8511 84.7628 93.7346 84.6914 93.6679C84.62 93.6012 84.5194 93.5679 84.3895 93.5679C84.2888 93.5679 84.1929 93.5825 84.1016 93.6118C84.0103 93.641 83.9237 93.6755 83.8418 93.7153L83.7523 93.4942C83.8389 93.4497 83.9384 93.4117 84.0507 93.3801C84.163 93.3485 84.2812 93.3327 84.4053 93.3327ZM84.7949 94.3402L84.5018 94.3525C84.2619 94.3619 84.0928 94.4011 83.9945 94.4701C83.8962 94.5392 83.8471 94.6369 83.8471 94.7632C83.8471 94.8732 83.8804 94.9546 83.9471 95.0072C84.0138 95.0599 84.1022 95.0862 84.2122 95.0862C84.383 95.0862 84.5229 95.0388 84.6317 94.944C84.7405 94.8493 84.7949 94.7071 84.7949 94.5175V94.3402ZM85.9745 93.3643V95.2881H85.6831V93.3643H85.9745ZM85.8323 92.6446C85.8803 92.6446 85.9213 92.6604 85.9552 92.692C85.9903 92.7224 86.0079 92.7704 86.0079 92.8359C86.0079 92.9003 85.9903 92.9483 85.9552 92.9799C85.9213 93.0114 85.8803 93.0272 85.8323 93.0272C85.782 93.0272 85.7399 93.0114 85.706 92.9799C85.6732 92.9483 85.6568 92.9003 85.6568 92.8359C85.6568 92.7704 85.6732 92.7224 85.706 92.692C85.7399 92.6604 85.782 92.6446 85.8323 92.6446ZM87.3331 93.3292C87.497 93.3292 87.6374 93.3654 87.7544 93.438C87.8714 93.5105 87.9609 93.6123 88.023 93.7434C88.085 93.8733 88.116 94.0254 88.116 94.1998V94.3806H86.7872C86.7907 94.6064 86.8469 94.7785 86.9557 94.8967C87.0646 95.0148 87.2179 95.0739 87.4156 95.0739C87.5373 95.0739 87.645 95.0628 87.7386 95.0406C87.8322 95.0184 87.9293 94.9856 88.03 94.9423V95.1986C87.9329 95.2419 87.8363 95.2735 87.7404 95.2934C87.6456 95.3132 87.5332 95.3232 87.4033 95.3232C87.2184 95.3232 87.057 95.2857 86.9189 95.2109C86.782 95.1348 86.6755 95.0236 86.5994 94.8773C86.5233 94.7311 86.4853 94.552 86.4853 94.3402C86.4853 94.1331 86.5198 93.954 86.5889 93.8031C86.6591 93.651 86.7574 93.5339 86.8838 93.452C87.0113 93.3701 87.1611 93.3292 87.3331 93.3292ZM87.3296 93.5679C87.174 93.5679 87.0499 93.6188 86.9575 93.7206C86.865 93.8224 86.81 93.9646 86.7925 94.1471H87.8106C87.8094 94.0325 87.7913 93.9318 87.7562 93.8452C87.7222 93.7575 87.6701 93.6896 87.5999 93.6416C87.5297 93.5925 87.4396 93.5679 87.3296 93.5679ZM90.6998 93.3292C90.9116 93.3292 91.0714 93.3847 91.179 93.4959C91.2867 93.6059 91.3405 93.7832 91.3405 94.0278V95.2881H91.0526V94.0418C91.0526 93.8862 91.0187 93.7697 90.9508 93.6925C90.8841 93.6141 90.7847 93.5749 90.6524 93.5749C90.4664 93.5749 90.3312 93.6287 90.2469 93.7364C90.1627 93.8441 90.1206 94.0026 90.1206 94.2121V95.2881H89.8309V94.0418C89.8309 93.9377 89.8157 93.8511 89.7853 93.782C89.756 93.713 89.7116 93.6615 89.6519 93.6276C89.5934 93.5925 89.5191 93.5749 89.429 93.5749C89.3014 93.5749 89.199 93.6012 89.1218 93.6539C89.0446 93.7066 88.9884 93.785 88.9533 93.8891C88.9193 93.9921 88.9024 94.119 88.9024 94.27V95.2881H88.611V93.3643H88.8462L88.8901 93.6363H88.9059C88.9445 93.5696 88.9931 93.5135 89.0516 93.4678C89.1101 93.4222 89.1756 93.3877 89.2482 93.3643C89.3207 93.3409 89.398 93.3292 89.4799 93.3292C89.6261 93.3292 89.7484 93.3567 89.8467 93.4117C89.9462 93.4655 90.0182 93.548 90.0626 93.6592H90.0784C90.1416 93.548 90.2282 93.4655 90.3382 93.4117C90.4482 93.3567 90.5688 93.3292 90.6998 93.3292ZM92.6798 93.3292C92.8436 93.3292 92.9841 93.3654 93.1011 93.438C93.2181 93.5105 93.3076 93.6123 93.3696 93.7434C93.4317 93.8733 93.4627 94.0254 93.4627 94.1998V94.3806H92.1339C92.1374 94.6064 92.1936 94.7785 92.3024 94.8967C92.4112 95.0148 92.5645 95.0739 92.7623 95.0739C92.884 95.0739 92.9917 95.0628 93.0853 95.0406C93.1789 95.0184 93.276 94.9856 93.3767 94.9423V95.1986C93.2795 95.2419 93.183 95.2735 93.087 95.2934C92.9922 95.3132 92.8799 95.3232 92.75 95.3232C92.5651 95.3232 92.4036 95.2857 92.2655 95.2109C92.1286 95.1348 92.0221 95.0236 91.9461 94.8773C91.87 94.7311 91.832 94.552 91.832 94.3402C91.832 94.1331 91.8665 93.954 91.9356 93.8031C92.0058 93.651 92.1041 93.5339 92.2304 93.452C92.358 93.3701 92.5078 93.3292 92.6798 93.3292ZM92.6763 93.5679C92.5207 93.5679 92.3966 93.6188 92.3042 93.7206C92.2117 93.8224 92.1567 93.9646 92.1392 94.1471H93.1572C93.1561 94.0325 93.1379 93.9318 93.1028 93.8452C93.0689 93.7575 93.0168 93.6896 92.9466 93.6416C92.8764 93.5925 92.7863 93.5679 92.6763 93.5679ZM94.8687 93.3292C95.0969 93.3292 95.2695 93.3853 95.3865 93.4977C95.5035 93.6088 95.562 93.7879 95.562 94.0348V95.2881H95.2742V94.0541C95.2742 93.8938 95.2373 93.7738 95.1636 93.6943C95.091 93.6147 94.9793 93.5749 94.8283 93.5749C94.6153 93.5749 94.4655 93.6352 94.3789 93.7557C94.2923 93.8762 94.2491 94.0512 94.2491 94.2805V95.2881H93.9577V93.3643H94.1929L94.2368 93.6416H94.2526C94.2935 93.5737 94.3456 93.517 94.4088 93.4713C94.472 93.4245 94.5428 93.3894 94.6212 93.366C94.6996 93.3414 94.7821 93.3292 94.8687 93.3292ZM96.7837 95.0845C96.8317 95.0845 96.8809 95.0804 96.9312 95.0722C96.9815 95.064 97.0224 95.054 97.054 95.0423V95.2688C97.0201 95.284 96.9727 95.2969 96.9119 95.3074C96.8522 95.3179 96.7937 95.3232 96.7363 95.3232C96.6345 95.3232 96.5421 95.3056 96.459 95.2705C96.3759 95.2343 96.3092 95.1734 96.2589 95.088C96.2097 95.0026 96.1852 94.8844 96.1852 94.7334V93.5925H95.9113V93.4503L96.1869 93.3362L96.3028 92.9184H96.4783V93.3643H97.0418V93.5925H96.4783V94.7246C96.4783 94.8452 96.5058 94.9353 96.5608 94.9949C96.617 95.0546 96.6913 95.0845 96.7837 95.0845Z" fill="#273D52"/>
<rect x="27.9997" y="86.7185" width="83.8805" height="14.1398" rx="1.07846" stroke="#E5ECED" stroke-width="0.239658"/>
</g>
<rect x="23.8715" y="9.8715" width="92.8697" height="182.528" rx="12.3519" stroke="#273D52" stroke-width="3.743"/>
</g>
<defs>
<clipPath id="clip0_1682_17074">
<rect width="140" height="96" fill="white"/>
</clipPath>
<clipPath id="clip1_1682_17074">
<path d="M25 11H115V174.728C115 177.64 112.64 180 109.728 180H30.2716C27.3602 180 25 177.64 25 174.728V11Z" fill="white"/>
</clipPath>
<clipPath id="clip2_1682_17074">
<rect width="7.66907" height="7.94795" fill="white" transform="translate(31.2354 72.5557)"/>
</clipPath>
</defs>
</svg>
